<?xml version="1.0" encoding="UTF-8" standalone="no"?><!DOCTYPE svg PUBLIC "-//W3C//DTD SVG 1.1//EN" "http://www.w3.org/Graphics/SVG/1.1/DTD/svg11.dtd"><svg width="100%" height="100%" viewBox="0 0 1250 1250" version="1.1" xmlns="http://www.w3.org/2000/svg" xmlns:xlink="http://www.w3.org/1999/xlink" xml:space="preserve" xmlns:serif="http://www.serif.com/" style="fill-rule:evenodd;clip-rule:evenodd;stroke-linejoin:round;stroke-miterlimit:1.41421;"><circle cx="625" cy="625" r="580.643" style="fill:url(#_Linear1);"/><clipPath id="_clip2"><circle cx="625" cy="625" r="580.643"/></clipPath><g clip-path="url(#_clip2)"><path d="M502.63,0l-166.262,99.868l-4.475,730.71l166.176,97.85l4.561,-928.428Z" style="fill:url(#_Linear3);"/><path d="M830.787,287.848l-278.055,159.52l0,194.493l445.168,-258.743l-167.113,-95.27Z" style="fill:url(#_Linear4);"/><path d="M552.732,447.368l445.168,257.018l0,190.747l-445.168,-253.272l0,-194.493Z" style="fill:url(#_Linear5);"/><path d="M997.9,704.386l-611.68,351.238l166.512,96.528l445.168,-257.019l0,-190.747Z" style="fill:url(#_Linear6);"/></g><defs><linearGradient id="_Linear1" x1="0" y1="0" x2="1" y2="0" gradientUnits="userSpaceOnUse" gradientTransform="matrix(1.99652,1215.57,-1215.57,1.99652,582.604,28.3203)"><stop offset="0" style="stop-color:#000a29;stop-opacity:1"/><stop offset="1" style="stop-color:#014e82;stop-opacity:1"/></linearGradient><linearGradient id="_Linear3" x1="0" y1="0" x2="1" y2="0" gradientUnits="userSpaceOnUse" gradientTransform="matrix(-0.742179,-1026.3,1026.3,-0.742179,498.808,919.35)"><stop offset="0" style="stop-color:#ebbc4e;stop-opacity:1"/><stop offset="1" style="stop-color:#ce0058;stop-opacity:1"/></linearGradient><linearGradient id="_Linear4" x1="0" y1="0" x2="1" y2="0" gradientUnits="userSpaceOnUse" gradientTransform="matrix(442.368,-261.191,261.191,442.368,557.394,514.696)"><stop offset="0" style="stop-color:#f6eb61;stop-opacity:1"/><stop offset="1" style="stop-color:#ce0058;stop-opacity:1"/></linearGradient><linearGradient id="_Linear5" x1="0" y1="0" x2="1" y2="0" gradientUnits="userSpaceOnUse" gradientTransform="matrix(554.051,323.967,-323.967,554.051,556.3,513.542)"><stop offset="0" style="stop-color:#ff9e1b;stop-opacity:1"/><stop offset="1" style="stop-color:#f6eb61;stop-opacity:1"/></linearGradient><linearGradient id="_Linear6" x1="0" y1="0" x2="1" y2="0" gradientUnits="userSpaceOnUse" gradientTransform="matrix(445.212,-259.549,259.549,445.212,557.943,1025.27)"><stop offset="0" style="stop-color:#eb3300;stop-opacity:1"/><stop offset="1" style="stop-color:#ebbc4e;stop-opacity:1"/></linearGradient></defs></svg>