<?xml version="1.0" encoding="UTF-8" standalone="no"?><!DOCTYPE svg PUBLIC "-//W3C//DTD SVG 1.1//EN" "http://www.w3.org/Graphics/SVG/1.1/DTD/svg11.dtd"><svg width="100%" height="100%" viewBox="0 0 1200 1200" version="1.1" xmlns="http://www.w3.org/2000/svg" xmlns:xlink="http://www.w3.org/1999/xlink" xml:space="preserve" xmlns:serif="http://www.serif.com/" style="fill-rule:evenodd;clip-rule:evenodd;stroke-linejoin:round;stroke-miterlimit:1.41421;"><circle cx="600" cy="600" r="580.643" style="fill:url(#_Linear1);"/><clipPath id="_clip2"><circle cx="600" cy="600" r="580.643"/></clipPath><g clip-path="url(#_clip2)"><path d="M448.012,-132.209l-167.396,98.849l-0.805,837.224l168.201,90.654l0,-1026.73Z" style="fill:url(#_Linear3);"/><path d="M773.382,255.861l-276.621,161.988l0,190.749l445.76,-256.052l-169.139,-96.685Z" style="fill:url(#_Linear4);"/><path d="M497.148,415.345l445.169,254.425l-3.244,194.198l-441.925,-255.146l0,-193.477Z" style="fill:url(#_Linear5);"/><path d="M942.317,669.77l-609.839,355.715l163.895,98.505l446.148,-258.032l-0.204,-196.188Z" style="fill:url(#_Linear6);"/></g><defs><linearGradient id="_Linear1" x1="0" y1="0" x2="1" y2="0" gradientUnits="userSpaceOnUse" gradientTransform="matrix(1.99652,1215.57,-1215.57,1.99652,557.604,3.32028)"><stop offset="0" style="stop-color:#000a29;stop-opacity:1"/><stop offset="1" style="stop-color:#014e82;stop-opacity:1"/></linearGradient><linearGradient id="_Linear3" x1="0" y1="0" x2="1" y2="0" gradientUnits="userSpaceOnUse" gradientTransform="matrix(-0.742179,-1026.3,1026.3,-0.742179,448.754,894.09)"><stop offset="0" style="stop-color:#9de7d7;stop-opacity:1"/><stop offset="1" style="stop-color:#002b49;stop-opacity:1"/></linearGradient><linearGradient id="_Linear4" x1="0" y1="0" x2="1" y2="0" gradientUnits="userSpaceOnUse" gradientTransform="matrix(442.368,-261.191,261.191,442.368,496.761,484.573)"><stop offset="0" style="stop-color:#9de7d7;stop-opacity:1"/><stop offset="1" style="stop-color:#002b49;stop-opacity:1"/></linearGradient><linearGradient id="_Linear5" x1="0" y1="0" x2="1" y2="0" gradientUnits="userSpaceOnUse" gradientTransform="matrix(554.051,323.967,-323.967,554.051,500.717,480.503)"><stop offset="0" style="stop-color:#9de7d7;stop-opacity:1"/><stop offset="1" style="stop-color:#002b49;stop-opacity:1"/></linearGradient><linearGradient id="_Linear6" x1="0" y1="0" x2="1" y2="0" gradientUnits="userSpaceOnUse" gradientTransform="matrix(445.212,-259.549,259.549,445.212,497.309,999.574)"><stop offset="0" style="stop-color:#9de7d7;stop-opacity:1"/><stop offset="1" style="stop-color:#002b49;stop-opacity:1"/></linearGradient></defs></svg>