<?xml version="1.0" encoding="utf-8"?>
<!-- Generator: Adobe Illustrator 21.0.0, SVG Export Plug-In . SVG Version: 6.00 Build 0)  -->
<svg version="1.1" xmlns="http://www.w3.org/2000/svg" xmlns:xlink="http://www.w3.org/1999/xlink" x="0px" y="0px"
	 viewBox="0 0 320 320" style="enable-background:new 0 0 320 320;" xml:space="preserve">
<style type="text/css">
	.st0{fill:#4D4D4D;}
	.st1{fill:#666666;}
</style>
<g id="Layer_2">
	<rect class="st0" width="320" height="320"/>
</g>
<g id="Layer_1">
	<g>
		<path class="st1" d="M173.1,158.19c0-4.62-2.6-7.23-6.94-7.23c-9.83,0-26.59,8.67-41.33,40.17c-1.16,2.31-1.16,4.62,2.6,4.62
			C142.75,195.76,173.1,171.49,173.1,158.19z"/>
		<path class="st1" d="M160,28C87.1,28,28,87.1,28,160c0,72.9,59.1,132,132,132s132-59.1,132-132C292,87.1,232.9,28,160,28z
			 M259,157.65c-0.96,0-2.25-0.32-4.5-2.57c-3.53-3.21-8.99-8.03-14.13-8.03c-7.06,0-13.49,5.46-13.17,15.09
			c0,7.39,3.21,16.38,12.2,31.15c6.1,11.24,9.63,21.19,9.31,28.9c0,9.63-6.74,19.27-18.63,28.26
			c-10.28,7.71-20.87,10.28-27.94,10.28c-10.28,0-17.02-8.03-17.34-16.06c-0.16-1.6,0.16-3.99,0.83-6.27
			c-8.82,14.55-21.52,22.97-28.1,22.97c-6.42,0-12.2-6.42-16.38-18.3c-3.21-7.39-8.03-20.55-10.92-29.54
			c-2.25-7.39-6.42-10.92-8.67-10.92c-1.93,0-5.46,4.5-7.71,9.95c-3.85,8.67-9.95,25.69-15.74,39.18c-2.57,5.46-5.14,7.71-6.1,7.71
			c-4.82,0-8.99-3.85-8.67-7.06c0.64-2.25,0.96-5.46,2.89-11.56c18.95-60.69,49.45-155.74,56.84-183.04
			c2.25-8.35,0-11.56-7.06-12.52c-2.89-0.64-4.5-1.61-4.5-2.25c0-1.28,1.93-1.61,3.21-1.93c12.52-1.93,23.76-3.53,28.9-5.14
			c1.61-0.32,3.21-0.64,4.17-0.64c1.28,0,1.28,3.21,0.32,5.78c-6.42,19.59-32.43,95.37-43.35,130.05c-0.32,1.61,0.32,3.85,1.93,1.61
			c11.56-14.45,23.76-23.44,33.08-28.9c8.03-5.14,17.34-7.07,20.87-7.07c8.35,0,13.49,3.85,13.49,10.6
			c0,11.88-11.88,25.69-21.19,32.43c-7.71,5.46-15.41,10.28-26.33,15.09c-0.96,0.32-1.61,1.93-1.28,3.21
			c2.89,13.81,6.74,28.58,10.92,38.53c3.53,7.71,5.78,10.6,8.99,10.6c4.5,0,12.2-4.49,21.19-17.34c2.88-3.53,4.81-2.57,2.26,2.86
			c1.27-0.94,2.53-1.23,3.48,0.35c5.14,9.31,13.49,17.66,24.08,17.66c9.63,0,17.66-6.42,17.34-17.98c0-6.1-2.57-14.45-9.63-27.3
			c-8.35-14.77-10.92-22.8-10.92-28.26c0-8.03,4.5-19.59,15.41-28.9c8.35-7.39,17.34-11.56,24.41-11.56c4.82,0,9.96,2.57,12.52,6.1
			c1.61,1.61,2.25,3.53,2.25,5.46C267.67,152.51,261.57,157.65,259,157.65z"/>
	</g>
</g>
</svg>
