<?xml version="1.0" encoding="UTF-8" standalone="no"?><!DOCTYPE svg PUBLIC "-//W3C//DTD SVG 1.1//EN" "http://www.w3.org/Graphics/SVG/1.1/DTD/svg11.dtd"><svg width="100%" height="100%" viewBox="0 0 1280 800" version="1.1" xmlns="http://www.w3.org/2000/svg" xmlns:xlink="http://www.w3.org/1999/xlink" xml:space="preserve" xmlns:serif="http://www.serif.com/" style="fill-rule:evenodd;clip-rule:evenodd;stroke-linejoin:round;stroke-miterlimit:1.41421;"><g id="Layer1"><rect x="0" y="0" width="1280" height="800" style="fill:#1a3e4c;"/></g><g><circle cx="851.947" cy="333.217" r="101.211" style="fill:#193441;"/><path d="M798.325,251.866l25.473,0l-15.83,79.148l1.274,0l13.1,-16.375l22.926,-23.654l29.658,0l-38.755,38.755l13.1,36.39l11.099,0l-4.367,20.379l-13.646,0c-8.976,0 -14.981,-4.791 -18.013,-14.374l-8.006,-24.927l-14.374,13.464l-5.095,25.837l-25.473,0l26.929,-134.643Z" style="fill:#3e606f;fill-rule:nonzero;"/><path d="M884.338,415.983c-7.648,0 -14.658,-1.351 -21.031,-4.055c-6.372,-2.703 -11.586,-6.759 -15.642,-12.165l15.295,-14.458c2.549,3.409 5.533,6.083 8.951,8.022c3.418,1.94 7.734,2.909 12.948,2.909c5.678,0 9.704,-1.028 12.08,-3.085c2.375,-2.057 3.562,-4.437 3.562,-7.141c0,-1.763 -0.608,-3.35 -1.824,-4.76c-1.217,-1.411 -3.448,-2.351 -6.692,-2.821l-9.212,-1.235c-7.879,-1.057 -13.904,-3.614 -18.075,-7.669c-4.171,-4.055 -6.257,-9.786 -6.257,-17.191c0,-4.349 0.753,-8.522 2.259,-12.518c1.507,-3.996 3.824,-7.523 6.953,-10.579c3.128,-3.056 7.068,-5.495 11.818,-7.317c4.751,-1.822 10.371,-2.733 16.859,-2.733c7.068,0 13.47,1.205 19.206,3.615c5.735,2.409 10.631,6.083 14.686,11.019l-15.295,14.458c-2.201,-2.821 -5.011,-5.084 -8.429,-6.788c-3.418,-1.704 -7.155,-2.557 -11.211,-2.557c-4.055,0 -7.27,0.911 -9.646,2.733c-2.375,1.822 -3.563,4.144 -3.563,6.965c0,1.763 0.609,3.35 1.825,4.76c1.217,1.411 3.447,2.351 6.692,2.821l9.211,1.234c7.879,1.058 13.905,3.615 18.076,7.67c4.171,4.055 6.257,9.727 6.257,17.014c0,4.467 -0.84,8.757 -2.52,12.871c-1.68,4.114 -4.201,7.728 -7.561,10.843c-3.36,3.115 -7.531,5.584 -12.514,7.405c-4.982,1.822 -10.718,2.733 -17.206,2.733Z" style="fill:#d1dbbd;fill-rule:nonzero;"/></g><g><circle cx="890.015" cy="569.511" r="23.101" style="fill:#193441;"/><path d="M877.776,550.943l5.814,0l-3.613,18.065l0.291,0l2.99,-3.737l5.233,-5.399l6.769,0l-8.846,8.846l2.99,8.306l2.534,0l-0.997,4.651l-3.115,0c-2.048,0 -3.419,-1.094 -4.111,-3.281l-1.827,-5.689l-3.281,3.073l-1.163,5.897l-5.814,0l6.146,-30.732Z" style="fill:#3e606f;fill-rule:nonzero;"/><path d="M897.408,588.402c-1.745,0 -3.345,-0.308 -4.8,-0.925c-1.454,-0.617 -2.644,-1.543 -3.57,-2.777l3.491,-3.3c0.582,0.778 1.263,1.389 2.043,1.831c0.78,0.443 1.765,0.664 2.955,0.664c1.296,0 2.215,-0.235 2.757,-0.704c0.543,-0.47 0.814,-1.013 0.814,-1.63c0,-0.402 -0.139,-0.764 -0.417,-1.086c-0.278,-0.322 -0.787,-0.537 -1.527,-0.644l-2.103,-0.282c-1.798,-0.241 -3.173,-0.825 -4.125,-1.751c-0.952,-0.925 -1.429,-2.233 -1.429,-3.923c0,-0.993 0.172,-1.945 0.516,-2.858c0.344,-0.912 0.873,-1.717 1.587,-2.414c0.714,-0.698 1.613,-1.254 2.698,-1.67c1.084,-0.416 2.367,-0.624 3.848,-0.624c1.613,0 3.074,0.275 4.383,0.825c1.309,0.55 2.427,1.388 3.352,2.515l-3.491,3.3c-0.502,-0.644 -1.143,-1.16 -1.924,-1.549c-0.78,-0.389 -1.633,-0.584 -2.558,-0.584c-0.926,0 -1.66,0.208 -2.202,0.624c-0.542,0.416 -0.813,0.946 -0.813,1.59c0,0.402 0.139,0.764 0.416,1.086c0.278,0.322 0.787,0.537 1.528,0.644l2.102,0.282c1.798,0.241 3.174,0.825 4.126,1.75c0.952,0.926 1.428,2.22 1.428,3.884c0,1.019 -0.192,1.999 -0.575,2.938c-0.384,0.939 -0.959,1.764 -1.726,2.474c-0.767,0.711 -1.719,1.275 -2.856,1.691c-1.137,0.416 -2.447,0.623 -3.928,0.623Z" style="fill:#d1dbbd;fill-rule:nonzero;"/></g><g><circle cx="969.108" cy="490.419" r="55.991" style="fill:#193441;"/><path d="M939.443,445.415l14.092,0l-8.757,43.785l0.705,0l7.247,-9.059l12.682,-13.085l16.407,0l-21.439,21.44l7.247,20.131l6.14,0l-2.416,11.274l-7.549,0c-4.966,0 -8.287,-2.651 -9.965,-7.952l-4.429,-13.79l-7.952,7.448l-2.818,14.294l-14.092,0l14.897,-74.486Z" style="fill:#3e606f;fill-rule:nonzero;"/><path d="M987.026,536.206c-4.231,0 -8.109,-0.748 -11.634,-2.243c-3.526,-1.496 -6.41,-3.739 -8.653,-6.73l8.461,-7.998c1.41,1.885 3.06,3.365 4.951,4.437c1.891,1.073 4.279,1.61 7.164,1.61c3.14,0 5.368,-0.569 6.682,-1.707c1.314,-1.138 1.971,-2.455 1.971,-3.95c0,-0.976 -0.337,-1.854 -1.01,-2.634c-0.673,-0.78 -1.907,-1.3 -3.701,-1.56l-5.096,-0.683c-4.359,-0.585 -7.692,-2 -10,-4.243c-2.307,-2.243 -3.461,-5.413 -3.461,-9.51c0,-2.406 0.416,-4.714 1.25,-6.925c0.833,-2.211 2.115,-4.162 3.846,-5.852c1.73,-1.691 3.91,-3.04 6.538,-4.048c2.628,-1.008 5.737,-1.512 9.326,-1.512c3.91,0 7.452,0.666 10.625,1.999c3.173,1.333 5.881,3.365 8.125,6.096l-8.462,7.999c-1.218,-1.561 -2.772,-2.813 -4.663,-3.756c-1.891,-0.942 -3.958,-1.414 -6.202,-1.414c-2.243,0 -4.022,0.504 -5.336,1.512c-1.314,1.008 -1.971,2.292 -1.971,3.853c0,0.975 0.337,1.853 1.01,2.633c0.673,0.78 1.907,1.301 3.701,1.561l5.096,0.683c4.359,0.585 7.692,1.999 10,4.242c2.308,2.244 3.461,5.381 3.461,9.413c0,2.471 -0.464,4.844 -1.394,7.12c-0.929,2.276 -2.323,4.276 -4.182,5.999c-1.859,1.723 -4.167,3.088 -6.923,4.096c-2.756,1.008 -5.929,1.512 -9.519,1.512Z" style="fill:#d1dbbd;fill-rule:nonzero;"/></g><g><circle cx="365.854" cy="616.014" r="443.481" style="fill:#3e606f;"/><path d="M130.895,259.556l111.616,0l-69.362,346.807l5.581,0l57.402,-71.753l100.455,-103.643l129.953,0l-169.816,169.815l57.402,159.451l48.633,0l-19.134,89.293l-59.794,0c-39.332,0 -65.641,-20.994 -78.929,-62.983l-35.079,-109.224l-62.983,58.997l-22.323,113.21l-111.616,0l117.994,-589.97Z" style="fill:#91aa9d;fill-rule:nonzero;"/><path d="M507.78,978.675c-33.509,0 -64.225,-5.923 -92.149,-17.768c-27.924,-11.846 -50.771,-29.615 -68.541,-53.307l67.018,-63.35c11.169,14.936 24.243,26.654 39.22,35.152c14.977,8.498 33.889,12.747 56.736,12.747c24.878,0 42.521,-4.507 52.929,-13.52c10.408,-9.013 15.612,-19.443 15.612,-31.288c0,-7.726 -2.666,-14.679 -7.997,-20.859c-5.331,-6.181 -15.104,-10.301 -29.32,-12.361l-40.362,-5.408c-34.525,-4.636 -60.925,-15.838 -79.203,-33.607c-18.277,-17.768 -27.416,-42.876 -27.416,-75.324c0,-19.056 3.3,-37.34 9.9,-54.852c6.6,-17.511 16.755,-32.962 30.463,-46.353c13.708,-13.391 30.97,-24.078 51.786,-32.061c20.816,-7.983 45.44,-11.975 73.871,-11.975c30.97,0 59.021,5.279 84.153,15.838c25.131,10.558 46.582,26.653 64.352,48.285l-67.018,63.349c-9.646,-12.361 -21.958,-22.275 -36.935,-29.743c-14.978,-7.468 -31.351,-11.202 -49.121,-11.202c-17.77,0 -31.859,3.991 -42.267,11.974c-10.408,7.983 -15.612,18.155 -15.612,30.516c0,7.726 2.666,14.679 7.997,20.859c5.331,6.181 15.104,10.301 29.32,12.361l40.363,5.408c34.524,4.636 60.924,15.838 79.202,33.607c18.277,17.768 27.416,42.619 27.416,74.551c0,19.572 -3.681,38.371 -11.043,56.397c-7.361,18.026 -18.404,33.864 -33.127,47.512c-14.724,13.649 -33.001,24.465 -54.833,32.448c-21.831,7.983 -46.963,11.974 -75.394,11.974Z" style="fill:#d1dbbd;fill-rule:nonzero;"/></g><g><circle cx="482.289" cy="212.459" r="188.112" style="fill:#193441;"/><path d="M382.626,61.26l47.344,0l-29.421,147.106l2.367,0l24.348,-30.436l42.61,-43.963l55.123,0l-72.031,72.031l24.348,67.635l20.629,0l-8.116,37.876l-25.363,0c-16.684,0 -27.843,-8.906 -33.48,-26.716l-14.879,-46.33l-26.716,25.025l-9.469,48.021l-47.344,0l50.05,-250.249Z" style="fill:#91aa9d;fill-rule:nonzero;"/><path d="M542.49,366.29c-14.214,0 -27.243,-2.512 -39.087,-7.537c-11.845,-5.025 -21.536,-12.562 -29.073,-22.611l28.427,-26.871c4.737,6.335 10.283,11.305 16.636,14.91c6.353,3.605 14.375,5.407 24.066,5.407c10.552,0 18.036,-1.911 22.451,-5.735c4.414,-3.823 6.622,-8.247 6.622,-13.271c0,-3.277 -1.131,-6.227 -3.392,-8.848c-2.261,-2.622 -6.407,-4.369 -12.437,-5.243l-17.121,-2.294c-14.644,-1.966 -25.842,-6.718 -33.595,-14.255c-7.753,-7.537 -11.629,-18.187 -11.629,-31.951c0,-8.083 1.4,-15.838 4.199,-23.266c2.8,-7.428 7.107,-13.982 12.922,-19.662c5.814,-5.68 13.136,-10.213 21.966,-13.599c8.829,-3.387 19.274,-5.08 31.334,-5.08c13.137,0 25.035,2.24 35.695,6.718c10.66,4.479 19.759,11.306 27.296,20.481l-28.426,26.871c-4.092,-5.243 -9.315,-9.448 -15.668,-12.616c-6.353,-3.168 -13.298,-4.752 -20.835,-4.752c-7.538,0 -13.514,1.693 -17.929,5.08c-4.414,3.386 -6.622,7.701 -6.622,12.944c0,3.277 1.131,6.226 3.392,8.848c2.261,2.621 6.407,4.369 12.437,5.243l17.121,2.294c14.644,1.966 25.842,6.717 33.595,14.254c7.753,7.538 11.629,18.078 11.629,31.623c0,8.302 -1.561,16.276 -4.684,23.922c-3.122,7.647 -7.806,14.364 -14.052,20.154c-6.245,5.789 -13.998,10.377 -23.258,13.763c-9.26,3.386 -19.92,5.079 -31.98,5.079Z" style="fill:#3e606f;fill-rule:nonzero;"/></g><g><path d="M750.736,52.763l5.28,0l0,38.4l-0.384,9.12l0.576,0l6.912,-8.544l14.496,-17.088l6.336,0l-17.184,20.064l19.008,29.088l-6.336,0l-16.512,-25.92l-6.912,7.872l0,18.048l-5.28,0l0,-71.04Z" style="fill:#3e606f;fill-rule:nonzero;"/><path d="M820.816,74.651l5.184,0l-20.352,63.648c-0.576,1.856 -1.28,3.104 -2.112,3.744c-0.832,0.64 -2.24,0.96 -4.224,0.96l-6.432,0l0,-4.608l7.968,0l3.648,-12.288l-16.416,-51.456l5.28,0l8.544,27.264l4.8,17.28l0.768,0l4.8,-17.28l8.544,-27.264Z" style="fill:#3e606f;fill-rule:nonzero;"/><path d="M851.056,124.955c-2.88,0 -5.52,-0.496 -7.92,-1.488c-2.4,-0.992 -4.464,-2.528 -6.192,-4.608c-1.728,-2.08 -3.056,-4.736 -3.984,-7.968c-0.928,-3.232 -1.392,-7.12 -1.392,-11.664c0,-4.544 0.464,-8.432 1.392,-11.664c0.928,-3.232 2.256,-5.888 3.984,-7.968c1.728,-2.08 3.792,-3.616 6.192,-4.608c2.4,-0.992 5.04,-1.488 7.92,-1.488c2.88,0 5.52,0.496 7.92,1.488c2.4,0.992 4.464,2.528 6.192,4.608c1.728,2.08 3.056,4.736 3.984,7.968c0.928,3.232 1.392,7.12 1.392,11.664c0,4.544 -0.464,8.432 -1.392,11.664c-0.928,3.232 -2.256,5.888 -3.984,7.968c-1.728,2.08 -3.792,3.616 -6.192,4.608c-2.4,0.992 -5.04,1.488 -7.92,1.488Zm0,-4.704c4.416,0 7.824,-1.424 10.224,-4.272c2.4,-2.848 3.6,-6.992 3.6,-12.432l0,-8.64c0,-5.44 -1.2,-9.584 -3.6,-12.432c-2.4,-2.848 -5.808,-4.272 -10.224,-4.272c-4.416,0 -7.824,1.424 -10.224,4.272c-2.4,2.848 -3.6,6.992 -3.6,12.432l0,8.64c0,5.44 1.2,9.584 3.6,12.432c2.4,2.848 5.808,4.272 10.224,4.272Z" style="fill:#3e606f;fill-rule:nonzero;"/><path d="M915.952,124.955c-3.84,0 -7.136,-0.752 -9.888,-2.256c-2.752,-1.504 -5.152,-3.792 -7.2,-6.864l3.744,-3.072c1.792,2.688 3.744,4.624 5.856,5.808c2.112,1.184 4.608,1.776 7.488,1.776c3.264,0 5.856,-0.8 7.776,-2.4c1.92,-1.6 2.88,-3.936 2.88,-7.008c0,-2.688 -0.64,-4.784 -1.92,-6.288c-1.28,-1.504 -3.584,-2.544 -6.912,-3.12l-3.84,-0.672c-4.48,-0.768 -7.856,-2.192 -10.128,-4.272c-2.272,-2.08 -3.408,-5.232 -3.408,-9.456c0,-4.672 1.408,-8.112 4.224,-10.32c2.816,-2.208 6.464,-3.312 10.944,-3.312c3.392,0 6.336,0.592 8.832,1.776c2.496,1.184 4.672,3.056 6.528,5.616l-3.456,3.168c-2.944,-3.968 -6.88,-5.952 -11.808,-5.952c-3.264,0 -5.76,0.736 -7.488,2.208c-1.728,1.472 -2.592,3.68 -2.592,6.624c0,2.88 0.704,4.992 2.112,6.336c1.408,1.344 3.744,2.304 7.008,2.88l3.744,0.672c4.672,0.832 8.064,2.304 10.176,4.416c2.112,2.112 3.168,5.184 3.168,9.216c0,4.608 -1.376,8.176 -4.128,10.704c-2.752,2.528 -6.656,3.792 -11.712,3.792Z" style="fill:#3e606f;fill-rule:nonzero;"/><path d="M972.496,116.027l-0.768,0c-0.896,2.816 -2.448,5.008 -4.656,6.576c-2.208,1.568 -5.072,2.352 -8.592,2.352c-4.544,0 -8.048,-1.456 -10.512,-4.368c-2.464,-2.912 -3.696,-7.28 -3.696,-13.104l0,-32.832l5.28,0l0,32.544c0,4.16 0.896,7.376 2.688,9.648c1.792,2.272 4.512,3.408 8.16,3.408c1.664,0 3.232,-0.256 4.704,-0.768c1.472,-0.512 2.752,-1.264 3.84,-2.256c1.088,-0.992 1.952,-2.208 2.592,-3.648c0.64,-1.44 0.96,-3.056 0.96,-4.848l0,-34.08l5.28,0l0,49.152l-5.28,0l0,-7.776Z" style="fill:#3e606f;fill-rule:nonzero;"/><path d="M1022.99,123.803c-3.52,0 -5.28,-1.728 -5.28,-5.184l0,-2.688l-0.768,0c-0.832,2.88 -2.368,5.104 -4.608,6.672c-2.24,1.568 -5.056,2.352 -8.448,2.352c-4.608,0 -8.128,-1.168 -10.56,-3.504c-2.432,-2.336 -3.648,-5.872 -3.648,-10.608c0,-4.672 1.44,-8.256 4.32,-10.752c2.88,-2.496 7.232,-3.744 13.056,-3.744l10.656,0l0,-6.528c0,-4.16 -0.896,-7.136 -2.688,-8.928c-1.792,-1.792 -4.576,-2.688 -8.352,-2.688c-2.88,0 -5.28,0.656 -7.2,1.968c-1.92,1.312 -3.488,3.312 -4.704,6l-3.456,-2.976c1.28,-2.88 3.216,-5.216 5.808,-7.008c2.592,-1.792 5.84,-2.688 9.744,-2.688c5.312,0 9.328,1.312 12.048,3.936c2.72,2.624 4.08,6.56 4.08,11.808l0,29.952l5.856,0l0,4.608l-5.856,0Zm-17.952,-3.456c1.792,0 3.456,-0.272 4.992,-0.816c1.536,-0.544 2.88,-1.328 4.032,-2.352c1.152,-1.024 2.048,-2.224 2.688,-3.6c0.64,-1.376 0.96,-2.896 0.96,-4.56l0,-8.64l-10.752,0c-3.84,0 -6.768,0.752 -8.784,2.256c-2.016,1.504 -3.024,3.6 -3.024,6.288l0,3.072c0,2.752 0.912,4.832 2.736,6.24c1.824,1.408 4.208,2.112 7.152,2.112Z" style="fill:#3e606f;fill-rule:nonzero;"/><path d="M1065.04,74.651l5.184,0l-20.352,63.648c-0.576,1.856 -1.28,3.104 -2.112,3.744c-0.832,0.64 -2.24,0.96 -4.224,0.96l-6.432,0l0,-4.608l7.968,0l3.648,-12.288l-16.416,-51.456l5.28,0l8.544,27.264l4.8,17.28l0.768,0l4.8,-17.28l8.544,-27.264Z" style="fill:#3e606f;fill-rule:nonzero;"/><path d="M1108.43,123.803c-3.52,0 -5.28,-1.728 -5.28,-5.184l0,-2.688l-0.768,0c-0.832,2.88 -2.368,5.104 -4.608,6.672c-2.24,1.568 -5.056,2.352 -8.448,2.352c-4.608,0 -8.128,-1.168 -10.56,-3.504c-2.432,-2.336 -3.648,-5.872 -3.648,-10.608c0,-4.672 1.44,-8.256 4.32,-10.752c2.88,-2.496 7.232,-3.744 13.056,-3.744l10.656,0l0,-6.528c0,-4.16 -0.896,-7.136 -2.688,-8.928c-1.792,-1.792 -4.576,-2.688 -8.352,-2.688c-2.88,0 -5.28,0.656 -7.2,1.968c-1.92,1.312 -3.488,3.312 -4.704,6l-3.456,-2.976c1.28,-2.88 3.216,-5.216 5.808,-7.008c2.592,-1.792 5.84,-2.688 9.744,-2.688c5.312,0 9.328,1.312 12.048,3.936c2.72,2.624 4.08,6.56 4.08,11.808l0,29.952l5.856,0l0,4.608l-5.856,0Zm-17.952,-3.456c1.792,0 3.456,-0.272 4.992,-0.816c1.536,-0.544 2.88,-1.328 4.032,-2.352c1.152,-1.024 2.048,-2.224 2.688,-3.6c0.64,-1.376 0.96,-2.896 0.96,-4.56l0,-8.64l-10.752,0c-3.84,0 -6.768,0.752 -8.784,2.256c-2.016,1.504 -3.024,3.6 -3.024,6.288l0,3.072c0,2.752 0.912,4.832 2.736,6.24c1.824,1.408 4.208,2.112 7.152,2.112Z" style="fill:#3e606f;fill-rule:nonzero;"/><path d="M1124.56,123.803l0,-49.152l5.28,0l0,7.776l0.768,0c0.896,-2.816 2.448,-5.008 4.656,-6.576c2.208,-1.568 5.072,-2.352 8.592,-2.352c4.48,0 7.968,1.456 10.464,4.368c2.496,2.912 3.744,7.28 3.744,13.104l0,32.832l-5.28,0l0,-32.544c0,-4.16 -0.896,-7.376 -2.688,-9.648c-1.792,-2.272 -4.512,-3.408 -8.16,-3.408c-1.664,0 -3.232,0.256 -4.704,0.768c-1.472,0.512 -2.752,1.264 -3.84,2.256c-1.088,0.992 -1.952,2.208 -2.592,3.648c-0.64,1.44 -0.96,3.056 -0.96,4.848l0,34.08l-5.28,0Z" style="fill:#3e606f;fill-rule:nonzero;"/></g><g><path d="M824.128,179.099c-1.92,0 -3.568,-0.376 -4.944,-1.128c-1.376,-0.752 -2.576,-1.896 -3.6,-3.432l1.872,-1.536c0.896,1.344 1.872,2.312 2.928,2.904c1.056,0.592 2.304,0.888 3.744,0.888c1.632,0 2.928,-0.4 3.888,-1.2c0.96,-0.8 1.44,-1.968 1.44,-3.504c0,-1.344 -0.32,-2.392 -0.96,-3.144c-0.64,-0.752 -1.792,-1.272 -3.456,-1.56l-1.92,-0.336c-2.24,-0.384 -3.928,-1.096 -5.064,-2.136c-1.136,-1.04 -1.704,-2.616 -1.704,-4.728c0,-2.336 0.704,-4.056 2.112,-5.16c1.408,-1.104 3.232,-1.656 5.472,-1.656c1.696,0 3.168,0.296 4.416,0.888c1.248,0.592 2.336,1.528 3.264,2.808l-1.728,1.584c-1.472,-1.984 -3.44,-2.976 -5.904,-2.976c-1.632,0 -2.88,0.368 -3.744,1.104c-0.864,0.736 -1.296,1.84 -1.296,3.312c0,1.44 0.352,2.496 1.056,3.168c0.704,0.672 1.872,1.152 3.504,1.44l1.872,0.336c2.336,0.416 4.032,1.152 5.088,2.208c1.056,1.056 1.584,2.592 1.584,4.608c0,2.304 -0.688,4.088 -2.064,5.352c-1.376,1.264 -3.328,1.896 -5.856,1.896Z" style="fill:#91aa9d;fill-rule:nonzero;"/><path d="M846.4,179.099c-1.44,0 -2.76,-0.248 -3.96,-0.744c-1.2,-0.496 -2.232,-1.264 -3.096,-2.304c-0.864,-1.04 -1.528,-2.368 -1.992,-3.984c-0.464,-1.616 -0.696,-3.56 -0.696,-5.832c0,-2.272 0.232,-4.216 0.696,-5.832c0.464,-1.616 1.128,-2.944 1.992,-3.984c0.864,-1.04 1.896,-1.808 3.096,-2.304c1.2,-0.496 2.52,-0.744 3.96,-0.744c1.44,0 2.76,0.248 3.96,0.744c1.2,0.496 2.232,1.264 3.096,2.304c0.864,1.04 1.528,2.368 1.992,3.984c0.464,1.616 0.696,3.56 0.696,5.832c0,2.272 -0.232,4.216 -0.696,5.832c-0.464,1.616 -1.128,2.944 -1.992,3.984c-0.864,1.04 -1.896,1.808 -3.096,2.304c-1.2,0.496 -2.52,0.744 -3.96,0.744Zm0,-2.352c2.208,0 3.912,-0.712 5.112,-2.136c1.2,-1.424 1.8,-3.496 1.8,-6.216l0,-4.32c0,-2.72 -0.6,-4.792 -1.8,-6.216c-1.2,-1.424 -2.904,-2.136 -5.112,-2.136c-2.208,0 -3.912,0.712 -5.112,2.136c-1.2,1.424 -1.8,3.496 -1.8,6.216l0,4.32c0,2.72 0.6,4.792 1.8,6.216c1.2,1.424 2.904,2.136 5.112,2.136Z" style="fill:#91aa9d;fill-rule:nonzero;"/><path d="M863.296,156.251l-3.792,0l0,-2.304l3.792,0l0,-7.584c0,-1.184 0.264,-2.04 0.792,-2.568c0.528,-0.528 1.384,-0.792 2.568,-0.792l4.08,0l0,2.304l-4.8,0l0,8.64l4.8,0l0,2.304l-4.8,0l0,22.272l-2.64,0l0,-22.272Z" style="fill:#91aa9d;fill-rule:nonzero;"/><path d="M879.76,178.523c-0.992,0 -1.712,-0.216 -2.16,-0.648c-0.448,-0.432 -0.672,-1.144 -0.672,-2.136l0,-19.488l-3.792,0l0,-2.304l2.544,0c0.608,0 1.008,-0.152 1.2,-0.456c0.192,-0.304 0.288,-0.76 0.288,-1.368l0,-5.04l2.4,0l0,6.864l4.896,0l0,2.304l-4.896,0l0,19.968l4.656,0l0,2.304l-4.464,0Z" style="fill:#91aa9d;fill-rule:nonzero;"/><path d="M887.824,153.947l2.544,0l3.072,12.576l2.112,9.648l0.336,0l2.304,-9.648l3.024,-12.576l3.264,0l3.072,12.576l2.304,9.648l0.336,0l2.112,-9.648l3.072,-12.576l2.496,0l-6.144,24.576l-3.456,0l-3.408,-13.344l-1.824,-8.592l-0.384,0l-1.872,8.592l-3.36,13.344l-3.504,0l-6.096,-24.576Z" style="fill:#91aa9d;fill-rule:nonzero;"/><path d="M937.408,178.523c-1.76,0 -2.64,-0.864 -2.64,-2.592l0,-1.344l-0.384,0c-0.416,1.44 -1.184,2.552 -2.304,3.336c-1.12,0.784 -2.528,1.176 -4.224,1.176c-2.304,0 -4.064,-0.584 -5.28,-1.752c-1.216,-1.168 -1.824,-2.936 -1.824,-5.304c0,-2.336 0.72,-4.128 2.16,-5.376c1.44,-1.248 3.616,-1.872 6.528,-1.872l5.328,0l0,-3.264c0,-2.08 -0.448,-3.568 -1.344,-4.464c-0.896,-0.896 -2.288,-1.344 -4.176,-1.344c-1.44,0 -2.64,0.328 -3.6,0.984c-0.96,0.656 -1.744,1.656 -2.352,3l-1.728,-1.488c0.64,-1.44 1.608,-2.608 2.904,-3.504c1.296,-0.896 2.92,-1.344 4.872,-1.344c2.656,0 4.664,0.656 6.024,1.968c1.36,1.312 2.04,3.28 2.04,5.904l0,14.976l2.928,0l0,2.304l-2.928,0Zm-8.976,-1.728c0.896,0 1.728,-0.136 2.496,-0.408c0.768,-0.272 1.44,-0.664 2.016,-1.176c0.576,-0.512 1.024,-1.112 1.344,-1.8c0.32,-0.688 0.48,-1.448 0.48,-2.28l0,-4.32l-5.376,0c-1.92,0 -3.384,0.376 -4.392,1.128c-1.008,0.752 -1.512,1.8 -1.512,3.144l0,1.536c0,1.376 0.456,2.416 1.368,3.12c0.912,0.704 2.104,1.056 3.576,1.056Z" style="fill:#91aa9d;fill-rule:nonzero;"/><path d="M945.472,178.523l0,-24.576l2.64,0l0,4.464l0.384,0c0.448,-1.376 1.2,-2.464 2.256,-3.264c1.056,-0.8 2.4,-1.2 4.032,-1.2l1.536,0l0,2.592l-2.208,0c-1.76,0 -3.2,0.48 -4.32,1.44c-1.12,0.96 -1.68,2.288 -1.68,3.984l0,16.56l-2.64,0Z" style="fill:#91aa9d;fill-rule:nonzero;"/><path d="M968.896,179.099c-1.44,0 -2.76,-0.248 -3.96,-0.744c-1.2,-0.496 -2.232,-1.264 -3.096,-2.304c-0.864,-1.04 -1.528,-2.368 -1.992,-3.984c-0.464,-1.616 -0.696,-3.56 -0.696,-5.832c0,-2.272 0.232,-4.216 0.696,-5.832c0.464,-1.616 1.128,-2.944 1.992,-3.984c0.864,-1.04 1.896,-1.808 3.096,-2.304c1.2,-0.496 2.52,-0.744 3.96,-0.744c2.912,0 5.192,1.008 6.84,3.024c1.648,2.016 2.472,5.216 2.472,9.6l0,0.72l-16.224,0l0,1.68c0,2.72 0.6,4.792 1.8,6.216c1.2,1.424 2.904,2.136 5.112,2.136c1.824,0 3.288,-0.408 4.392,-1.224c1.104,-0.816 1.976,-2.04 2.616,-3.672l1.824,1.248c-0.704,1.888 -1.768,3.36 -3.192,4.416c-1.424,1.056 -3.304,1.584 -5.64,1.584Zm0,-23.472c-2.208,0 -3.912,0.728 -5.112,2.184c-1.2,1.456 -1.8,3.544 -1.8,6.264l0,0.624l13.392,0l0,-0.624c0,-2.72 -0.536,-4.808 -1.608,-6.264c-1.072,-1.456 -2.696,-2.184 -4.872,-2.184Z" style="fill:#91aa9d;fill-rule:nonzero;"/><path d="M1002.54,179.099c-1.44,0 -2.76,-0.248 -3.96,-0.744c-1.2,-0.496 -2.232,-1.264 -3.096,-2.304c-0.864,-1.04 -1.528,-2.368 -1.992,-3.984c-0.464,-1.616 -0.696,-3.56 -0.696,-5.832c0,-2.272 0.232,-4.216 0.696,-5.832c0.464,-1.616 1.128,-2.944 1.992,-3.984c0.864,-1.04 1.896,-1.808 3.096,-2.304c1.2,-0.496 2.52,-0.744 3.96,-0.744c2.912,0 5.192,1.008 6.84,3.024c1.648,2.016 2.472,5.216 2.472,9.6l0,0.72l-16.224,0l0,1.68c0,2.72 0.6,4.792 1.8,6.216c1.2,1.424 2.904,2.136 5.112,2.136c1.824,0 3.288,-0.408 4.392,-1.224c1.104,-0.816 1.976,-2.04 2.616,-3.672l1.824,1.248c-0.704,1.888 -1.768,3.36 -3.192,4.416c-1.424,1.056 -3.304,1.584 -5.64,1.584Zm0,-23.472c-2.208,0 -3.912,0.728 -5.112,2.184c-1.2,1.456 -1.8,3.544 -1.8,6.264l0,0.624l13.392,0l0,-0.624c0,-2.72 -0.536,-4.808 -1.608,-6.264c-1.072,-1.456 -2.696,-2.184 -4.872,-2.184Z" style="fill:#91aa9d;fill-rule:nonzero;"/><path d="M1018.05,178.523l0,-24.576l2.64,0l0,3.888l0.384,0c0.448,-1.408 1.224,-2.504 2.328,-3.288c1.104,-0.784 2.536,-1.176 4.296,-1.176c2.24,0 3.984,0.728 5.232,2.184c1.248,1.456 1.872,3.64 1.872,6.552l0,16.416l-2.64,0l0,-16.272c0,-2.08 -0.448,-3.688 -1.344,-4.824c-0.896,-1.136 -2.256,-1.704 -4.08,-1.704c-0.832,0 -1.616,0.128 -2.352,0.384c-0.736,0.256 -1.376,0.632 -1.92,1.128c-0.544,0.496 -0.976,1.104 -1.296,1.824c-0.32,0.72 -0.48,1.528 -0.48,2.424l0,17.04l-2.64,0Z" style="fill:#91aa9d;fill-rule:nonzero;"/><path d="M1060.67,181.403c0,2.592 -0.872,4.456 -2.616,5.592c-1.744,1.136 -4.44,1.704 -8.088,1.704c-3.456,0 -5.92,-0.536 -7.392,-1.608c-1.472,-1.072 -2.208,-2.616 -2.208,-4.632c0,-1.44 0.352,-2.56 1.056,-3.36c0.704,-0.8 1.632,-1.328 2.784,-1.584l0,-0.528c-1.408,-0.608 -2.112,-1.712 -2.112,-3.312c0,-1.024 0.32,-1.904 0.96,-2.64c0.64,-0.736 1.552,-1.168 2.736,-1.296l0,-0.432c-1.248,-0.608 -2.224,-1.536 -2.928,-2.784c-0.704,-1.248 -1.056,-2.832 -1.056,-4.752c0,-2.784 0.728,-4.88 2.184,-6.288c1.456,-1.408 3.432,-2.112 5.928,-2.112c1.632,0 3.104,0.352 4.416,1.056l0,-1.44c0,-0.736 0.152,-1.256 0.456,-1.56c0.304,-0.304 0.824,-0.456 1.56,-0.456l3.792,0l0,2.304l-4.464,0l0,2.112c0.736,0.704 1.312,1.584 1.728,2.64c0.416,1.056 0.624,2.304 0.624,3.744c0,2.784 -0.728,4.872 -2.184,6.264c-1.456,1.392 -3.432,2.088 -5.928,2.088c-0.8,0 -1.6,-0.08 -2.4,-0.24c-1.024,0.256 -1.808,0.656 -2.352,1.2c-0.544,0.544 -0.816,1.184 -0.816,1.92c0,0.736 0.248,1.296 0.744,1.68c0.496,0.384 1.32,0.576 2.472,0.576l5.616,0c2.688,0 4.608,0.52 5.76,1.56c1.152,1.04 1.728,2.568 1.728,4.584Zm-2.496,0.144c0,-1.248 -0.368,-2.2 -1.104,-2.856c-0.736,-0.656 -2.064,-0.984 -3.984,-0.984l-7.248,0c-2.016,0.832 -3.024,2.24 -3.024,4.224c0,1.44 0.472,2.56 1.416,3.36c0.944,0.8 2.376,1.2 4.296,1.2l2.832,0c2.208,0 3.896,-0.392 5.064,-1.176c1.168,-0.784 1.752,-2.04 1.752,-3.768Zm-8.256,-13.584c1.728,0 3.064,-0.456 4.008,-1.368c0.944,-0.912 1.416,-2.2 1.416,-3.864l0,-1.968c0,-1.664 -0.472,-2.952 -1.416,-3.864c-0.944,-0.912 -2.28,-1.368 -4.008,-1.368c-1.728,0 -3.064,0.456 -4.008,1.368c-0.944,0.912 -1.416,2.2 -1.416,3.864l0,1.968c0,1.664 0.472,2.952 1.416,3.864c0.944,0.912 2.28,1.368 4.008,1.368Z" style="fill:#91aa9d;fill-rule:nonzero;"/><path d="M1066.62,147.179c-0.64,0 -1.096,-0.144 -1.368,-0.432c-0.272,-0.288 -0.408,-0.672 -0.408,-1.152l0,-0.672c0,-0.48 0.136,-0.864 0.408,-1.152c0.272,-0.288 0.728,-0.432 1.368,-0.432c0.64,0 1.096,0.144 1.368,0.432c0.272,0.288 0.408,0.672 0.408,1.152l0,0.672c0,0.48 -0.136,0.864 -0.408,1.152c-0.272,0.288 -0.728,0.432 -1.368,0.432Zm-1.344,6.768l2.64,0l0,24.576l-2.64,0l0,-24.576Z" style="fill:#91aa9d;fill-rule:nonzero;"/><path d="M1075.89,178.523l0,-24.576l2.64,0l0,3.888l0.384,0c0.448,-1.408 1.224,-2.504 2.328,-3.288c1.104,-0.784 2.536,-1.176 4.296,-1.176c2.24,0 3.984,0.728 5.232,2.184c1.248,1.456 1.872,3.64 1.872,6.552l0,16.416l-2.64,0l0,-16.272c0,-2.08 -0.448,-3.688 -1.344,-4.824c-0.896,-1.136 -2.256,-1.704 -4.08,-1.704c-0.832,0 -1.616,0.128 -2.352,0.384c-0.736,0.256 -1.376,0.632 -1.92,1.128c-0.544,0.496 -0.976,1.104 -1.296,1.824c-0.32,0.72 -0.48,1.528 -0.48,2.424l0,17.04l-2.64,0Z" style="fill:#91aa9d;fill-rule:nonzero;"/><path d="M1108.24,179.099c-1.44,0 -2.76,-0.248 -3.96,-0.744c-1.2,-0.496 -2.232,-1.264 -3.096,-2.304c-0.864,-1.04 -1.528,-2.368 -1.992,-3.984c-0.464,-1.616 -0.696,-3.56 -0.696,-5.832c0,-2.272 0.232,-4.216 0.696,-5.832c0.464,-1.616 1.128,-2.944 1.992,-3.984c0.864,-1.04 1.896,-1.808 3.096,-2.304c1.2,-0.496 2.52,-0.744 3.96,-0.744c2.912,0 5.192,1.008 6.84,3.024c1.648,2.016 2.472,5.216 2.472,9.6l0,0.72l-16.224,0l0,1.68c0,2.72 0.6,4.792 1.8,6.216c1.2,1.424 2.904,2.136 5.112,2.136c1.824,0 3.288,-0.408 4.392,-1.224c1.104,-0.816 1.976,-2.04 2.616,-3.672l1.824,1.248c-0.704,1.888 -1.768,3.36 -3.192,4.416c-1.424,1.056 -3.304,1.584 -5.64,1.584Zm0,-23.472c-2.208,0 -3.912,0.728 -5.112,2.184c-1.2,1.456 -1.8,3.544 -1.8,6.264l0,0.624l13.392,0l0,-0.624c0,-2.72 -0.536,-4.808 -1.608,-6.264c-1.072,-1.456 -2.696,-2.184 -4.872,-2.184Z" style="fill:#91aa9d;fill-rule:nonzero;"/><path d="M1131.71,179.099c-1.44,0 -2.76,-0.248 -3.96,-0.744c-1.2,-0.496 -2.232,-1.264 -3.096,-2.304c-0.864,-1.04 -1.528,-2.368 -1.992,-3.984c-0.464,-1.616 -0.696,-3.56 -0.696,-5.832c0,-2.272 0.232,-4.216 0.696,-5.832c0.464,-1.616 1.128,-2.944 1.992,-3.984c0.864,-1.04 1.896,-1.808 3.096,-2.304c1.2,-0.496 2.52,-0.744 3.96,-0.744c2.912,0 5.192,1.008 6.84,3.024c1.648,2.016 2.472,5.216 2.472,9.6l0,0.72l-16.224,0l0,1.68c0,2.72 0.6,4.792 1.8,6.216c1.2,1.424 2.904,2.136 5.112,2.136c1.824,0 3.288,-0.408 4.392,-1.224c1.104,-0.816 1.976,-2.04 2.616,-3.672l1.824,1.248c-0.704,1.888 -1.768,3.36 -3.192,4.416c-1.424,1.056 -3.304,1.584 -5.64,1.584Zm0,-23.472c-2.208,0 -3.912,0.728 -5.112,2.184c-1.2,1.456 -1.8,3.544 -1.8,6.264l0,0.624l13.392,0l0,-0.624c0,-2.72 -0.536,-4.808 -1.608,-6.264c-1.072,-1.456 -2.696,-2.184 -4.872,-2.184Z" style="fill:#91aa9d;fill-rule:nonzero;"/><path d="M1147.22,178.523l0,-24.576l2.64,0l0,4.464l0.384,0c0.448,-1.376 1.2,-2.464 2.256,-3.264c1.056,-0.8 2.4,-1.2 4.032,-1.2l1.536,0l0,2.592l-2.208,0c-1.76,0 -3.2,0.48 -4.32,1.44c-1.12,0.96 -1.68,2.288 -1.68,3.984l0,16.56l-2.64,0Z" style="fill:#91aa9d;fill-rule:nonzero;"/></g></svg>