<?xml version="1.0" encoding="UTF-8" standalone="no"?><!DOCTYPE svg PUBLIC "-//W3C//DTD SVG 1.1//EN" "http://www.w3.org/Graphics/SVG/1.1/DTD/svg11.dtd"><svg width="100%" height="100%" viewBox="0 0 1280 800" version="1.1" xmlns="http://www.w3.org/2000/svg" xmlns:xlink="http://www.w3.org/1999/xlink" xml:space="preserve" xmlns:serif="http://www.serif.com/" style="fill-rule:evenodd;clip-rule:evenodd;stroke-linejoin:round;stroke-miterlimit:1.41421;"><g id="Layer1"><rect x="0" y="0" width="1280" height="800" style="fill:url(#_Linear1);"/></g><g><path d="M604.465,85.145l6.716,0l0,48.839l-0.489,11.599l0.733,0l8.791,-10.866l18.437,-21.734l8.058,0l-21.855,25.519l24.175,36.995l-8.058,0l-21.001,-32.966l-8.791,10.012l0,22.954l-6.716,0l0,-90.352Z" style="fill:#3e606f;fill-rule:nonzero;"/><path d="M693.597,112.983l6.594,0l-25.885,80.951c-0.733,2.361 -1.628,3.948 -2.687,4.762c-1.058,0.814 -2.849,1.221 -5.372,1.221l-8.18,0l0,-5.861l10.134,0l4.639,-15.628l-20.878,-65.445l6.715,0l10.867,34.676l6.105,21.978l0.976,0l6.105,-21.978l10.867,-34.676Z" style="fill:#3e606f;fill-rule:nonzero;"/><path d="M732.058,176.963c-3.663,0 -7.02,-0.631 -10.073,-1.893c-3.052,-1.262 -5.677,-3.215 -7.875,-5.861c-2.198,-2.645 -3.887,-6.023 -5.067,-10.134c-1.181,-4.11 -1.771,-9.055 -1.771,-14.835c0,-5.779 0.59,-10.724 1.771,-14.835c1.18,-4.11 2.869,-7.488 5.067,-10.134c2.198,-2.645 4.823,-4.599 7.875,-5.861c3.053,-1.261 6.41,-1.892 10.073,-1.892c3.663,0 7.021,0.631 10.073,1.892c3.053,1.262 5.678,3.216 7.876,5.861c2.197,2.646 3.887,6.024 5.067,10.134c1.18,4.111 1.77,9.056 1.77,14.835c0,5.78 -0.59,10.725 -1.77,14.835c-1.18,4.111 -2.87,7.489 -5.067,10.134c-2.198,2.646 -4.823,4.599 -7.876,5.861c-3.052,1.262 -6.41,1.893 -10.073,1.893Zm0,-5.983c5.617,0 9.951,-1.811 13.004,-5.434c3.052,-3.622 4.578,-8.892 4.578,-15.811l0,-10.989c0,-6.919 -1.526,-12.19 -4.578,-15.812c-3.053,-3.622 -7.387,-5.433 -13.004,-5.433c-5.616,0 -9.951,1.811 -13.003,5.433c-3.053,3.622 -4.579,8.893 -4.579,15.812l0,10.989c0,6.919 1.526,12.189 4.579,15.811c3.052,3.623 7.387,5.434 13.003,5.434Z" style="fill:#3e606f;fill-rule:nonzero;"/><path d="M814.597,176.963c-4.884,0 -9.076,-0.957 -12.576,-2.87c-3.5,-1.913 -6.553,-4.823 -9.158,-8.73l4.762,-3.907c2.279,3.419 4.762,5.881 7.448,7.387c2.686,1.506 5.861,2.259 9.524,2.259c4.151,0 7.448,-1.018 9.89,-3.053c2.442,-2.035 3.663,-5.006 3.663,-8.913c0,-3.419 -0.814,-6.084 -2.442,-7.997c-1.628,-1.913 -4.559,-3.236 -8.791,-3.968l-4.884,-0.855c-5.698,-0.977 -9.992,-2.788 -12.882,-5.433c-2.889,-2.646 -4.334,-6.655 -4.334,-12.027c0,-5.942 1.791,-10.318 5.372,-13.126c3.582,-2.808 8.221,-4.212 13.919,-4.212c4.315,0 8.059,0.753 11.233,2.259c3.175,1.506 5.943,3.886 8.303,7.142l-4.395,4.03c-3.745,-5.047 -8.751,-7.57 -15.018,-7.57c-4.152,0 -7.326,0.936 -9.524,2.808c-2.198,1.872 -3.297,4.68 -3.297,8.425c0,3.663 0.896,6.349 2.686,8.058c1.791,1.709 4.762,2.93 8.914,3.663l4.761,0.855c5.943,1.058 10.257,2.93 12.943,5.616c2.686,2.686 4.029,6.594 4.029,11.722c0,5.86 -1.75,10.398 -5.25,13.614c-3.5,3.215 -8.466,4.823 -14.896,4.823Z" style="fill:#3e606f;fill-rule:nonzero;"/><path d="M886.513,165.607l-0.977,0c-1.14,3.582 -3.113,6.37 -5.922,8.364c-2.808,1.994 -6.451,2.992 -10.928,2.992c-5.779,0 -10.235,-1.852 -13.369,-5.556c-3.134,-3.704 -4.701,-9.259 -4.701,-16.666l0,-41.758l6.715,0l0,41.391c0,5.291 1.14,9.382 3.419,12.271c2.279,2.89 5.739,4.335 10.378,4.335c2.117,0 4.111,-0.326 5.983,-0.977c1.872,-0.651 3.5,-1.608 4.884,-2.869c1.384,-1.262 2.483,-2.809 3.297,-4.64c0.814,-1.832 1.221,-3.887 1.221,-6.166l0,-43.345l6.715,0l0,62.514l-6.715,0l0,-9.89Z" style="fill:#3e606f;fill-rule:nonzero;"/><path d="M950.737,175.497c-4.477,0 -6.716,-2.197 -6.716,-6.593l0,-3.419l-0.977,0c-1.058,3.663 -3.011,6.492 -5.86,8.486c-2.849,1.994 -6.431,2.992 -10.745,2.992c-5.861,0 -10.338,-1.486 -13.431,-4.457c-3.093,-2.971 -4.64,-7.468 -4.64,-13.492c0,-5.942 1.832,-10.5 5.495,-13.675c3.663,-3.174 9.198,-4.762 16.605,-4.762l13.553,0l0,-8.302c0,-5.291 -1.139,-9.076 -3.419,-11.356c-2.279,-2.279 -5.82,-3.418 -10.622,-3.418c-3.663,0 -6.716,0.834 -9.157,2.503c-2.442,1.668 -4.437,4.212 -5.983,7.631l-4.396,-3.785c1.628,-3.663 4.09,-6.634 7.387,-8.913c3.297,-2.28 7.428,-3.419 12.393,-3.419c6.756,0 11.864,1.668 15.323,5.006c3.46,3.337 5.19,8.343 5.19,15.018l0,38.095l7.448,0l0,5.86l-7.448,0Zm-22.833,-4.395c2.279,0 4.396,-0.346 6.349,-1.038c1.954,-0.692 3.663,-1.689 5.128,-2.991c1.466,-1.303 2.605,-2.829 3.419,-4.579c0.814,-1.75 1.221,-3.683 1.221,-5.8l0,-10.989l-13.675,0c-4.884,0 -8.608,0.957 -11.172,2.87c-2.564,1.913 -3.846,4.578 -3.846,7.997l0,3.907c0,3.5 1.16,6.146 3.48,7.937c2.32,1.791 5.352,2.686 9.096,2.686Z" style="fill:#3e606f;fill-rule:nonzero;"/><path d="M1004.22,112.983l6.593,0l-25.885,80.951c-0.732,2.361 -1.628,3.948 -2.686,4.762c-1.058,0.814 -2.849,1.221 -5.372,1.221l-8.181,0l0,-5.861l10.134,0l4.64,-15.628l-20.879,-65.445l6.716,0l10.866,34.676l6.105,21.978l0.977,0l6.105,-21.978l10.867,-34.676Z" style="fill:#3e606f;fill-rule:nonzero;"/><path d="M1059.4,175.497c-4.477,0 -6.715,-2.197 -6.715,-6.593l0,-3.419l-0.977,0c-1.058,3.663 -3.012,6.492 -5.861,8.486c-2.849,1.994 -6.43,2.992 -10.744,2.992c-5.861,0 -10.338,-1.486 -13.431,-4.457c-3.093,-2.971 -4.64,-7.468 -4.64,-13.492c0,-5.942 1.832,-10.5 5.495,-13.675c3.663,-3.174 9.198,-4.762 16.605,-4.762l13.553,0l0,-8.302c0,-5.291 -1.14,-9.076 -3.419,-11.356c-2.279,-2.279 -5.82,-3.418 -10.622,-3.418c-3.663,0 -6.716,0.834 -9.158,2.503c-2.442,1.668 -4.436,4.212 -5.983,7.631l-4.395,-3.785c1.628,-3.663 4.09,-6.634 7.387,-8.913c3.296,-2.28 7.427,-3.419 12.393,-3.419c6.756,0 11.864,1.668 15.323,5.006c3.46,3.337 5.189,8.343 5.189,15.018l0,38.095l7.448,0l0,5.86l-7.448,0Zm-22.832,-4.395c2.279,0 4.395,-0.346 6.349,-1.038c1.954,-0.692 3.663,-1.689 5.128,-2.991c1.465,-1.303 2.605,-2.829 3.419,-4.579c0.814,-1.75 1.221,-3.683 1.221,-5.8l0,-10.989l-13.675,0c-4.884,0 -8.608,0.957 -11.172,2.87c-2.564,1.913 -3.846,4.578 -3.846,7.997l0,3.907c0,3.5 1.16,6.146 3.48,7.937c2.319,1.791 5.352,2.686 9.096,2.686Z" style="fill:#3e606f;fill-rule:nonzero;"/><path d="M1079.92,175.497l0,-62.514l6.715,0l0,9.89l0.977,0c1.14,-3.582 3.114,-6.369 5.922,-8.364c2.808,-1.994 6.451,-2.991 10.928,-2.991c5.698,0 10.134,1.852 13.308,5.555c3.175,3.704 4.762,9.259 4.762,16.667l0,41.757l-6.715,0l0,-41.391c0,-5.291 -1.14,-9.381 -3.419,-12.271c-2.279,-2.89 -5.739,-4.334 -10.378,-4.334c-2.117,0 -4.111,0.325 -5.983,0.976c-1.872,0.652 -3.5,1.608 -4.884,2.87c-1.384,1.261 -2.483,2.808 -3.297,4.639c-0.814,1.832 -1.221,3.887 -1.221,6.166l0,43.345l-6.715,0Z" style="fill:#3e606f;fill-rule:nonzero;"/></g><g><path d="M697.81,245.826c-2.442,0 -4.538,-0.478 -6.288,-1.434c-1.751,-0.957 -3.277,-2.412 -4.579,-4.365l2.381,-1.954c1.139,1.709 2.381,2.94 3.724,3.693c1.343,0.753 2.93,1.13 4.762,1.13c2.075,0 3.724,-0.509 4.945,-1.526c1.221,-1.018 1.831,-2.503 1.831,-4.457c0,-1.709 -0.407,-3.042 -1.221,-3.999c-0.814,-0.956 -2.279,-1.618 -4.395,-1.984l-2.442,-0.427c-2.849,-0.489 -4.996,-1.394 -6.441,-2.717c-1.445,-1.323 -2.167,-3.327 -2.167,-6.013c0,-2.971 0.895,-5.159 2.686,-6.563c1.791,-1.404 4.11,-2.106 6.959,-2.106c2.157,0 4.03,0.376 5.617,1.129c1.587,0.753 2.971,1.944 4.151,3.572l-2.197,2.014c-1.873,-2.523 -4.376,-3.785 -7.51,-3.785c-2.075,0 -3.663,0.468 -4.761,1.404c-1.099,0.936 -1.649,2.34 -1.649,4.213c0,1.831 0.448,3.174 1.343,4.029c0.896,0.855 2.381,1.465 4.457,1.831l2.381,0.428c2.971,0.529 5.128,1.465 6.471,2.808c1.343,1.343 2.015,3.297 2.015,5.861c0,2.93 -0.875,5.199 -2.625,6.807c-1.75,1.607 -4.233,2.411 -7.448,2.411Z" style="fill:#91aa9d;fill-rule:nonzero;"/><path d="M726.136,245.826c-1.831,0 -3.51,-0.315 -5.036,-0.946c-1.526,-0.631 -2.839,-1.608 -3.938,-2.93c-1.099,-1.323 -1.943,-3.012 -2.533,-5.068c-0.59,-2.055 -0.886,-4.527 -0.886,-7.417c0,-2.89 0.296,-5.362 0.886,-7.418c0.59,-2.055 1.434,-3.744 2.533,-5.067c1.099,-1.322 2.412,-2.299 3.938,-2.93c1.526,-0.631 3.205,-0.946 5.036,-0.946c1.832,0 3.511,0.315 5.037,0.946c1.526,0.631 2.839,1.608 3.938,2.93c1.099,1.323 1.943,3.012 2.533,5.067c0.59,2.056 0.885,4.528 0.885,7.418c0,2.89 -0.295,5.362 -0.885,7.417c-0.59,2.056 -1.434,3.745 -2.533,5.068c-1.099,1.322 -2.412,2.299 -3.938,2.93c-1.526,0.631 -3.205,0.946 -5.037,0.946Zm0,-2.991c2.809,0 4.976,-0.906 6.502,-2.717c1.526,-1.811 2.29,-4.446 2.29,-7.906l0,-5.494c0,-3.46 -0.764,-6.095 -2.29,-7.906c-1.526,-1.811 -3.693,-2.717 -6.502,-2.717c-2.808,0 -4.975,0.906 -6.501,2.717c-1.527,1.811 -2.29,4.446 -2.29,7.906l0,5.494c0,3.46 0.763,6.095 2.29,7.906c1.526,1.811 3.693,2.717 6.501,2.717Z" style="fill:#91aa9d;fill-rule:nonzero;"/><path d="M747.626,216.767l-4.823,0l0,-2.931l4.823,0l0,-9.645c0,-1.506 0.336,-2.595 1.007,-3.267c0.672,-0.671 1.76,-1.007 3.266,-1.007l5.189,0l0,2.931l-6.105,0l0,10.988l6.105,0l0,2.931l-6.105,0l0,28.327l-3.357,0l0,-28.327Z" style="fill:#91aa9d;fill-rule:nonzero;"/><path d="M768.566,245.094c-1.262,0 -2.178,-0.275 -2.748,-0.825c-0.569,-0.549 -0.854,-1.455 -0.854,-2.716l0,-24.786l-4.823,0l0,-2.931l3.235,0c0.774,0 1.283,-0.193 1.527,-0.58c0.244,-0.386 0.366,-0.966 0.366,-1.74l0,-6.41l3.052,0l0,8.73l6.228,0l0,2.931l-6.228,0l0,25.396l5.922,0l0,2.931l-5.677,0Z" style="fill:#91aa9d;fill-rule:nonzero;"/><path d="M778.822,213.836l3.236,0l3.907,15.995l2.686,12.271l0.427,0l2.931,-12.271l3.846,-15.995l4.151,0l3.907,15.995l2.931,12.271l0.427,0l2.686,-12.271l3.907,-15.995l3.175,0l-7.815,31.258l-4.395,0l-4.335,-16.972l-2.319,-10.928l-0.489,0l-2.381,10.928l-4.273,16.972l-4.457,0l-7.753,-31.258Z" style="fill:#91aa9d;fill-rule:nonzero;"/><path d="M841.886,245.094c-2.239,0 -3.358,-1.099 -3.358,-3.297l0,-1.709l-0.488,0c-0.529,1.831 -1.506,3.245 -2.931,4.242c-1.424,0.998 -3.215,1.496 -5.372,1.496c-2.93,0 -5.169,-0.743 -6.715,-2.228c-1.547,-1.486 -2.32,-3.734 -2.32,-6.746c0,-2.971 0.915,-5.25 2.747,-6.838c1.831,-1.587 4.599,-2.38 8.303,-2.38l6.776,0l0,-4.152c0,-2.645 -0.57,-4.538 -1.709,-5.677c-1.14,-1.14 -2.91,-1.71 -5.312,-1.71c-1.831,0 -3.357,0.417 -4.578,1.252c-1.221,0.834 -2.218,2.106 -2.992,3.815l-2.197,-1.892c0.814,-1.832 2.045,-3.317 3.693,-4.457c1.648,-1.139 3.714,-1.709 6.197,-1.709c3.378,0 5.932,0.834 7.661,2.503c1.73,1.668 2.595,4.171 2.595,7.509l0,19.047l3.724,0l0,2.931l-3.724,0Zm-11.416,-2.198c1.139,0 2.197,-0.173 3.174,-0.519c0.977,-0.346 1.832,-0.845 2.564,-1.496c0.733,-0.651 1.303,-1.414 1.71,-2.289c0.407,-0.875 0.61,-1.842 0.61,-2.9l0,-5.494l-6.837,0c-2.442,0 -4.304,0.478 -5.586,1.434c-1.282,0.957 -1.923,2.29 -1.923,3.999l0,1.954c0,1.75 0.58,3.072 1.739,3.968c1.16,0.895 2.676,1.343 4.549,1.343Z" style="fill:#91aa9d;fill-rule:nonzero;"/><path d="M852.142,245.094l0,-31.258l3.358,0l0,5.678l0.488,0c0.57,-1.75 1.526,-3.134 2.87,-4.151c1.343,-1.018 3.052,-1.527 5.128,-1.527l1.953,0l0,3.297l-2.808,0c-2.238,0 -4.07,0.611 -5.494,1.832c-1.425,1.22 -2.137,2.91 -2.137,5.067l0,21.062l-3.358,0Z" style="fill:#91aa9d;fill-rule:nonzero;"/><path d="M881.934,245.826c-1.831,0 -3.51,-0.315 -5.036,-0.946c-1.527,-0.631 -2.839,-1.608 -3.938,-2.93c-1.099,-1.323 -1.943,-3.012 -2.534,-5.068c-0.59,-2.055 -0.885,-4.527 -0.885,-7.417c0,-2.89 0.295,-5.362 0.885,-7.418c0.591,-2.055 1.435,-3.744 2.534,-5.067c1.099,-1.322 2.411,-2.299 3.938,-2.93c1.526,-0.631 3.205,-0.946 5.036,-0.946c3.704,0 6.604,1.282 8.7,3.846c2.096,2.564 3.144,6.634 3.144,12.21l0,0.915l-20.635,0l0,2.137c0,3.46 0.763,6.095 2.289,7.906c1.527,1.811 3.694,2.717 6.502,2.717c2.32,0 4.182,-0.519 5.586,-1.557c1.404,-1.038 2.513,-2.595 3.327,-4.67l2.32,1.587c-0.895,2.401 -2.248,4.273 -4.06,5.617c-1.811,1.343 -4.202,2.014 -7.173,2.014Zm0,-29.853c-2.808,0 -4.975,0.926 -6.502,2.778c-1.526,1.852 -2.289,4.507 -2.289,7.967l0,0.793l17.033,0l0,-0.793c0,-3.46 -0.682,-6.115 -2.045,-7.967c-1.364,-1.852 -3.429,-2.778 -6.197,-2.778Z" style="fill:#91aa9d;fill-rule:nonzero;"/><path d="M924.73,245.826c-1.832,0 -3.511,-0.315 -5.037,-0.946c-1.526,-0.631 -2.839,-1.608 -3.938,-2.93c-1.098,-1.323 -1.943,-3.012 -2.533,-5.068c-0.59,-2.055 -0.885,-4.527 -0.885,-7.417c0,-2.89 0.295,-5.362 0.885,-7.418c0.59,-2.055 1.435,-3.744 2.533,-5.067c1.099,-1.322 2.412,-2.299 3.938,-2.93c1.526,-0.631 3.205,-0.946 5.037,-0.946c3.703,0 6.603,1.282 8.699,3.846c2.096,2.564 3.144,6.634 3.144,12.21l0,0.915l-20.634,0l0,2.137c0,3.46 0.763,6.095 2.289,7.906c1.526,1.811 3.693,2.717 6.502,2.717c2.32,0 4.182,-0.519 5.586,-1.557c1.404,-1.038 2.513,-2.595 3.327,-4.67l2.32,1.587c-0.896,2.401 -2.249,4.273 -4.06,5.617c-1.811,1.343 -4.202,2.014 -7.173,2.014Zm0,-29.853c-2.809,0 -4.976,0.926 -6.502,2.778c-1.526,1.852 -2.289,4.507 -2.289,7.967l0,0.793l17.032,0l0,-0.793c0,-3.46 -0.681,-6.115 -2.045,-7.967c-1.363,-1.852 -3.429,-2.778 -6.196,-2.778Z" style="fill:#91aa9d;fill-rule:nonzero;"/><path d="M944.449,245.094l0,-31.258l3.357,0l0,4.945l0.489,0c0.569,-1.79 1.556,-3.184 2.961,-4.182c1.404,-0.997 3.225,-1.495 5.463,-1.495c2.849,0 5.068,0.926 6.655,2.778c1.587,1.851 2.381,4.629 2.381,8.333l0,20.879l-3.358,0l0,-20.696c0,-2.646 -0.57,-4.691 -1.709,-6.136c-1.14,-1.444 -2.87,-2.167 -5.189,-2.167c-1.059,0 -2.056,0.163 -2.992,0.489c-0.936,0.325 -1.75,0.803 -2.442,1.434c-0.692,0.631 -1.241,1.404 -1.648,2.32c-0.407,0.916 -0.611,1.944 -0.611,3.083l0,21.673l-3.357,0Z" style="fill:#91aa9d;fill-rule:nonzero;"/><path d="M998.66,248.757c0,3.296 -1.109,5.667 -3.327,7.112c-2.218,1.445 -5.647,2.167 -10.287,2.167c-4.395,0 -7.529,-0.682 -9.401,-2.045c-1.872,-1.364 -2.809,-3.327 -2.809,-5.891c0,-1.832 0.448,-3.256 1.344,-4.274c0.895,-1.017 2.075,-1.689 3.54,-2.014l0,-0.672c-1.79,-0.773 -2.686,-2.177 -2.686,-4.212c0,-1.303 0.407,-2.422 1.221,-3.358c0.814,-0.936 1.974,-1.486 3.48,-1.648l0,-0.55c-1.587,-0.773 -2.829,-1.953 -3.724,-3.541c-0.895,-1.587 -1.343,-3.602 -1.343,-6.044c0,-3.54 0.926,-6.206 2.778,-7.997c1.852,-1.791 4.365,-2.686 7.539,-2.686c2.076,0 3.948,0.447 5.617,1.343l0,-1.832c0,-0.936 0.193,-1.597 0.58,-1.984c0.386,-0.386 1.048,-0.58 1.984,-0.58l4.823,0l0,2.931l-5.678,0l0,2.686c0.936,0.895 1.669,2.014 2.198,3.358c0.529,1.343 0.794,2.93 0.794,4.761c0,3.541 -0.926,6.197 -2.778,7.967c-1.852,1.771 -4.365,2.656 -7.54,2.656c-1.017,0 -2.035,-0.102 -3.052,-0.305c-1.303,0.325 -2.3,0.834 -2.992,1.526c-0.691,0.692 -1.037,1.506 -1.037,2.442c0,0.936 0.315,1.648 0.946,2.137c0.631,0.488 1.679,0.732 3.144,0.732l7.143,0c3.418,0 5.86,0.662 7.326,1.984c1.465,1.323 2.197,3.266 2.197,5.831Zm-3.174,0.183c0,-1.588 -0.468,-2.798 -1.404,-3.633c-0.936,-0.834 -2.625,-1.251 -5.067,-1.251l-9.219,0c-2.564,1.058 -3.846,2.849 -3.846,5.372c0,1.832 0.6,3.256 1.801,4.274c1.201,1.017 3.022,1.526 5.464,1.526l3.602,0c2.808,0 4.955,-0.499 6.44,-1.496c1.486,-0.997 2.229,-2.595 2.229,-4.792Zm-10.501,-17.277c2.198,0 3.897,-0.58 5.098,-1.74c1.201,-1.16 1.801,-2.798 1.801,-4.915l0,-2.503c0,-2.116 -0.6,-3.754 -1.801,-4.914c-1.201,-1.16 -2.9,-1.74 -5.098,-1.74c-2.197,0 -3.897,0.58 -5.097,1.74c-1.201,1.16 -1.801,2.798 -1.801,4.914l0,2.503c0,2.117 0.6,3.755 1.801,4.915c1.2,1.16 2.9,1.74 5.097,1.74Z" style="fill:#91aa9d;fill-rule:nonzero;"/><path d="M1006.23,205.228c-0.814,0 -1.394,-0.183 -1.739,-0.549c-0.346,-0.366 -0.519,-0.855 -0.519,-1.465l0,-0.855c0,-0.61 0.173,-1.099 0.519,-1.465c0.345,-0.366 0.925,-0.55 1.739,-0.55c0.814,0 1.394,0.184 1.74,0.55c0.346,0.366 0.519,0.855 0.519,1.465l0,0.855c0,0.61 -0.173,1.099 -0.519,1.465c-0.346,0.366 -0.926,0.549 -1.74,0.549Zm-1.709,8.608l3.358,0l0,31.258l-3.358,0l0,-31.258Z" style="fill:#91aa9d;fill-rule:nonzero;"/><path d="M1018.01,245.094l0,-31.258l3.358,0l0,4.945l0.488,0c0.57,-1.79 1.557,-3.184 2.961,-4.182c1.404,-0.997 3.225,-1.495 5.464,-1.495c2.849,0 5.067,0.926 6.654,2.778c1.587,1.851 2.381,4.629 2.381,8.333l0,20.879l-3.358,0l0,-20.696c0,-2.646 -0.569,-4.691 -1.709,-6.136c-1.14,-1.444 -2.869,-2.167 -5.189,-2.167c-1.058,0 -2.055,0.163 -2.992,0.489c-0.936,0.325 -1.75,0.803 -2.442,1.434c-0.691,0.631 -1.241,1.404 -1.648,2.32c-0.407,0.916 -0.61,1.944 -0.61,3.083l0,21.673l-3.358,0Z" style="fill:#91aa9d;fill-rule:nonzero;"/><path d="M1059.16,245.826c-1.831,0 -3.51,-0.315 -5.036,-0.946c-1.527,-0.631 -2.839,-1.608 -3.938,-2.93c-1.099,-1.323 -1.944,-3.012 -2.534,-5.068c-0.59,-2.055 -0.885,-4.527 -0.885,-7.417c0,-2.89 0.295,-5.362 0.885,-7.418c0.59,-2.055 1.435,-3.744 2.534,-5.067c1.099,-1.322 2.411,-2.299 3.938,-2.93c1.526,-0.631 3.205,-0.946 5.036,-0.946c3.704,0 6.604,1.282 8.7,3.846c2.096,2.564 3.144,6.634 3.144,12.21l0,0.915l-20.635,0l0,2.137c0,3.46 0.763,6.095 2.289,7.906c1.527,1.811 3.694,2.717 6.502,2.717c2.32,0 4.182,-0.519 5.586,-1.557c1.404,-1.038 2.513,-2.595 3.327,-4.67l2.32,1.587c-0.895,2.401 -2.248,4.273 -4.06,5.617c-1.811,1.343 -4.202,2.014 -7.173,2.014Zm0,-29.853c-2.808,0 -4.975,0.926 -6.502,2.778c-1.526,1.852 -2.289,4.507 -2.289,7.967l0,0.793l17.033,0l0,-0.793c0,-3.46 -0.682,-6.115 -2.045,-7.967c-1.364,-1.852 -3.429,-2.778 -6.197,-2.778Z" style="fill:#91aa9d;fill-rule:nonzero;"/><path d="M1089.01,245.826c-1.831,0 -3.51,-0.315 -5.036,-0.946c-1.527,-0.631 -2.839,-1.608 -3.938,-2.93c-1.099,-1.323 -1.943,-3.012 -2.534,-5.068c-0.59,-2.055 -0.885,-4.527 -0.885,-7.417c0,-2.89 0.295,-5.362 0.885,-7.418c0.591,-2.055 1.435,-3.744 2.534,-5.067c1.099,-1.322 2.411,-2.299 3.938,-2.93c1.526,-0.631 3.205,-0.946 5.036,-0.946c3.704,0 6.604,1.282 8.7,3.846c2.096,2.564 3.144,6.634 3.144,12.21l0,0.915l-20.635,0l0,2.137c0,3.46 0.763,6.095 2.289,7.906c1.527,1.811 3.694,2.717 6.502,2.717c2.32,0 4.182,-0.519 5.586,-1.557c1.404,-1.038 2.513,-2.595 3.327,-4.67l2.32,1.587c-0.895,2.401 -2.248,4.273 -4.059,5.617c-1.812,1.343 -4.203,2.014 -7.174,2.014Zm0,-29.853c-2.808,0 -4.975,0.926 -6.502,2.778c-1.526,1.852 -2.289,4.507 -2.289,7.967l0,0.793l17.033,0l0,-0.793c0,-3.46 -0.682,-6.115 -2.045,-7.967c-1.364,-1.852 -3.429,-2.778 -6.197,-2.778Z" style="fill:#91aa9d;fill-rule:nonzero;"/><path d="M1108.73,245.094l0,-31.258l3.358,0l0,5.678l0.488,0c0.57,-1.75 1.526,-3.134 2.87,-4.151c1.343,-1.018 3.052,-1.527 5.128,-1.527l1.953,0l0,3.297l-2.808,0c-2.238,0 -4.07,0.611 -5.494,1.832c-1.425,1.22 -2.137,2.91 -2.137,5.067l0,21.062l-3.358,0Z" style="fill:#91aa9d;fill-rule:nonzero;"/></g><circle cx="363.608" cy="258.036" r="206.138" style="fill:url(#_Linear2);"/><clipPath id="_clip3"><circle cx="363.608" cy="258.036" r="206.138"/></clipPath><g clip-path="url(#_clip3)"><path d="M320.165,36.151l-59.026,35.455l-1.588,259.414l58.995,34.738l1.619,-329.607Z" style="fill:url(#_Linear4);"/><path d="M436.666,138.342l-98.714,56.632l0,69.048l158.042,-91.858l-59.328,-33.822Z" style="fill:url(#_Linear5);"/><path d="M337.952,194.974l158.042,91.245l0,67.719l-158.042,-89.916l0,-69.048Z" style="fill:url(#_Linear6);"/><path d="M495.994,286.219l-217.156,124.695l59.114,34.269l158.042,-91.245l0,-67.719Z" style="fill:url(#_Linear7);"/></g><defs><linearGradient id="_Linear1" x1="0" y1="0" x2="1" y2="0" gradientUnits="userSpaceOnUse" gradientTransform="matrix(206.378,800,-800,206.378,558.673,0)"><stop offset="0" style="stop-color:#0d0600;stop-opacity:1"/><stop offset="1" style="stop-color:#002855;stop-opacity:1"/></linearGradient><linearGradient id="_Linear2" x1="0" y1="0" x2="1" y2="0" gradientUnits="userSpaceOnUse" gradientTransform="matrix(0.708798,431.548,-431.548,0.708798,348.557,46.205)"><stop offset="0" style="stop-color:#000a29;stop-opacity:1"/><stop offset="1" style="stop-color:#014e82;stop-opacity:1"/></linearGradient><linearGradient id="_Linear4" x1="0" y1="0" x2="1" y2="0" gradientUnits="userSpaceOnUse" gradientTransform="matrix(-0.263486,-364.353,364.353,-0.263486,318.808,362.535)"><stop offset="0" style="stop-color:#ebbc4e;stop-opacity:1"/><stop offset="1" style="stop-color:#ce0058;stop-opacity:1"/></linearGradient><linearGradient id="_Linear5" x1="0" y1="0" x2="1" y2="0" gradientUnits="userSpaceOnUse" gradientTransform="matrix(157.048,-92.7269,92.7269,157.048,339.607,218.876)"><stop offset="0" style="stop-color:#f6eb61;stop-opacity:1"/><stop offset="1" style="stop-color:#ce0058;stop-opacity:1"/></linearGradient><linearGradient id="_Linear6" x1="0" y1="0" x2="1" y2="0" gradientUnits="userSpaceOnUse" gradientTransform="matrix(196.697,115.014,-115.014,196.697,339.219,218.467)"><stop offset="0" style="stop-color:#ff9e1b;stop-opacity:1"/><stop offset="1" style="stop-color:#f6eb61;stop-opacity:1"/></linearGradient><linearGradient id="_Linear7" x1="0" y1="0" x2="1" y2="0" gradientUnits="userSpaceOnUse" gradientTransform="matrix(158.057,-92.1441,92.1441,158.057,339.802,400.138)"><stop offset="0" style="stop-color:#eb3300;stop-opacity:1"/><stop offset="1" style="stop-color:#ebbc4e;stop-opacity:1"/></linearGradient></defs></svg>