<?xml version="1.0" encoding="UTF-8" standalone="no"?><!DOCTYPE svg PUBLIC "-//W3C//DTD SVG 1.1//EN" "http://www.w3.org/Graphics/SVG/1.1/DTD/svg11.dtd"><svg width="100%" height="100%" viewBox="0 0 1280 800" version="1.1" xmlns="http://www.w3.org/2000/svg" xmlns:xlink="http://www.w3.org/1999/xlink" xml:space="preserve" xmlns:serif="http://www.serif.com/" style="fill-rule:evenodd;clip-rule:evenodd;stroke-linejoin:round;stroke-miterlimit:1.41421;"><g id="Layer1"><rect x="0" y="0" width="1280" height="800" style="fill:#021420;"/></g><g><circle cx="851.947" cy="333.217" r="101.211" style="fill:#193441;"/><path d="M798.325,251.866l25.473,0l-15.83,79.148l1.274,0l13.1,-16.375l22.926,-23.654l29.658,0l-38.755,38.755l13.1,36.39l11.099,0l-4.367,20.379l-13.646,0c-8.976,0 -14.981,-4.791 -18.013,-14.374l-8.006,-24.927l-14.374,13.464l-5.095,25.837l-25.473,0l26.929,-134.643Z" style="fill:#3e606f;fill-rule:nonzero;"/><path d="M884.338,415.983c-7.648,0 -14.658,-1.351 -21.031,-4.055c-6.372,-2.703 -11.586,-6.759 -15.642,-12.165l15.295,-14.458c2.549,3.409 5.533,6.083 8.951,8.022c3.418,1.94 7.734,2.909 12.948,2.909c5.678,0 9.704,-1.028 12.08,-3.085c2.375,-2.057 3.562,-4.437 3.562,-7.141c0,-1.763 -0.608,-3.35 -1.824,-4.76c-1.217,-1.411 -3.448,-2.351 -6.692,-2.821l-9.212,-1.235c-7.879,-1.057 -13.904,-3.614 -18.075,-7.669c-4.171,-4.055 -6.257,-9.786 -6.257,-17.191c0,-4.349 0.753,-8.522 2.259,-12.518c1.507,-3.996 3.824,-7.523 6.953,-10.579c3.128,-3.056 7.068,-5.495 11.818,-7.317c4.751,-1.822 10.371,-2.733 16.859,-2.733c7.068,0 13.47,1.205 19.206,3.615c5.735,2.409 10.631,6.083 14.686,11.019l-15.295,14.458c-2.201,-2.821 -5.011,-5.084 -8.429,-6.788c-3.418,-1.704 -7.155,-2.557 -11.211,-2.557c-4.055,0 -7.27,0.911 -9.646,2.733c-2.375,1.822 -3.563,4.144 -3.563,6.965c0,1.763 0.609,3.35 1.825,4.76c1.217,1.411 3.447,2.351 6.692,2.821l9.211,1.234c7.879,1.058 13.905,3.615 18.076,7.67c4.171,4.055 6.257,9.727 6.257,17.014c0,4.467 -0.84,8.757 -2.52,12.871c-1.68,4.114 -4.201,7.728 -7.561,10.843c-3.36,3.115 -7.531,5.584 -12.514,7.405c-4.982,1.822 -10.718,2.733 -17.206,2.733Z" style="fill:#d1dbbd;fill-rule:nonzero;"/></g><g><circle cx="890.015" cy="569.511" r="23.101" style="fill:#193441;"/><path d="M877.776,550.943l5.814,0l-3.613,18.065l0.291,0l2.99,-3.737l5.233,-5.399l6.769,0l-8.846,8.846l2.99,8.306l2.534,0l-0.997,4.651l-3.115,0c-2.048,0 -3.419,-1.094 -4.111,-3.281l-1.827,-5.689l-3.281,3.073l-1.163,5.897l-5.814,0l6.146,-30.732Z" style="fill:#3e606f;fill-rule:nonzero;"/><path d="M897.408,588.402c-1.745,0 -3.345,-0.308 -4.8,-0.925c-1.454,-0.617 -2.644,-1.543 -3.57,-2.777l3.491,-3.3c0.582,0.778 1.263,1.389 2.043,1.831c0.78,0.443 1.765,0.664 2.955,0.664c1.296,0 2.215,-0.235 2.757,-0.704c0.543,-0.47 0.814,-1.013 0.814,-1.63c0,-0.402 -0.139,-0.764 -0.417,-1.086c-0.278,-0.322 -0.787,-0.537 -1.527,-0.644l-2.103,-0.282c-1.798,-0.241 -3.173,-0.825 -4.125,-1.751c-0.952,-0.925 -1.429,-2.233 -1.429,-3.923c0,-0.993 0.172,-1.945 0.516,-2.858c0.344,-0.912 0.873,-1.717 1.587,-2.414c0.714,-0.698 1.613,-1.254 2.698,-1.67c1.084,-0.416 2.367,-0.624 3.848,-0.624c1.613,0 3.074,0.275 4.383,0.825c1.309,0.55 2.427,1.388 3.352,2.515l-3.491,3.3c-0.502,-0.644 -1.143,-1.16 -1.924,-1.549c-0.78,-0.389 -1.633,-0.584 -2.558,-0.584c-0.926,0 -1.66,0.208 -2.202,0.624c-0.542,0.416 -0.813,0.946 -0.813,1.59c0,0.402 0.139,0.764 0.416,1.086c0.278,0.322 0.787,0.537 1.528,0.644l2.102,0.282c1.798,0.241 3.174,0.825 4.126,1.75c0.952,0.926 1.428,2.22 1.428,3.884c0,1.019 -0.192,1.999 -0.575,2.938c-0.384,0.939 -0.959,1.764 -1.726,2.474c-0.767,0.711 -1.719,1.275 -2.856,1.691c-1.137,0.416 -2.447,0.623 -3.928,0.623Z" style="fill:#d1dbbd;fill-rule:nonzero;"/></g><g><circle cx="969.108" cy="490.419" r="55.991" style="fill:#193441;"/><path d="M939.443,445.415l14.092,0l-8.757,43.785l0.705,0l7.247,-9.059l12.682,-13.085l16.407,0l-21.439,21.44l7.247,20.131l6.14,0l-2.416,11.274l-7.549,0c-4.966,0 -8.287,-2.651 -9.965,-7.952l-4.429,-13.79l-7.952,7.448l-2.818,14.294l-14.092,0l14.897,-74.486Z" style="fill:#3e606f;fill-rule:nonzero;"/><path d="M987.026,536.206c-4.231,0 -8.109,-0.748 -11.634,-2.243c-3.526,-1.496 -6.41,-3.739 -8.653,-6.73l8.461,-7.998c1.41,1.885 3.06,3.365 4.951,4.437c1.891,1.073 4.279,1.61 7.164,1.61c3.14,0 5.368,-0.569 6.682,-1.707c1.314,-1.138 1.971,-2.455 1.971,-3.95c0,-0.976 -0.337,-1.854 -1.01,-2.634c-0.673,-0.78 -1.907,-1.3 -3.701,-1.56l-5.096,-0.683c-4.359,-0.585 -7.692,-2 -10,-4.243c-2.307,-2.243 -3.461,-5.413 -3.461,-9.51c0,-2.406 0.416,-4.714 1.25,-6.925c0.833,-2.211 2.115,-4.162 3.846,-5.852c1.73,-1.691 3.91,-3.04 6.538,-4.048c2.628,-1.008 5.737,-1.512 9.326,-1.512c3.91,0 7.452,0.666 10.625,1.999c3.173,1.333 5.881,3.365 8.125,6.096l-8.462,7.999c-1.218,-1.561 -2.772,-2.813 -4.663,-3.756c-1.891,-0.942 -3.958,-1.414 -6.202,-1.414c-2.243,0 -4.022,0.504 -5.336,1.512c-1.314,1.008 -1.971,2.292 -1.971,3.853c0,0.975 0.337,1.853 1.01,2.633c0.673,0.78 1.907,1.301 3.701,1.561l5.096,0.683c4.359,0.585 7.692,1.999 10,4.242c2.308,2.244 3.461,5.381 3.461,9.413c0,2.471 -0.464,4.844 -1.394,7.12c-0.929,2.276 -2.323,4.276 -4.182,5.999c-1.859,1.723 -4.167,3.088 -6.923,4.096c-2.756,1.008 -5.929,1.512 -9.519,1.512Z" style="fill:#d1dbbd;fill-rule:nonzero;"/></g><g><circle cx="365.854" cy="616.014" r="443.481" style="fill:#3e606f;"/><path d="M130.895,259.556l111.616,0l-69.362,346.807l5.581,0l57.402,-71.753l100.455,-103.643l129.953,0l-169.816,169.815l57.402,159.451l48.633,0l-19.134,89.293l-59.794,0c-39.332,0 -65.641,-20.994 -78.929,-62.983l-35.079,-109.224l-62.983,58.997l-22.323,113.21l-111.616,0l117.994,-589.97Z" style="fill:#91aa9d;fill-rule:nonzero;"/><path d="M507.78,978.675c-33.509,0 -64.225,-5.923 -92.149,-17.768c-27.924,-11.846 -50.771,-29.615 -68.541,-53.307l67.018,-63.35c11.169,14.936 24.243,26.654 39.22,35.152c14.977,8.498 33.889,12.747 56.736,12.747c24.878,0 42.521,-4.507 52.929,-13.52c10.408,-9.013 15.612,-19.443 15.612,-31.288c0,-7.726 -2.666,-14.679 -7.997,-20.859c-5.331,-6.181 -15.104,-10.301 -29.32,-12.361l-40.362,-5.408c-34.525,-4.636 -60.925,-15.838 -79.203,-33.607c-18.277,-17.768 -27.416,-42.876 -27.416,-75.324c0,-19.056 3.3,-37.34 9.9,-54.852c6.6,-17.511 16.755,-32.962 30.463,-46.353c13.708,-13.391 30.97,-24.078 51.786,-32.061c20.816,-7.983 45.44,-11.975 73.871,-11.975c30.97,0 59.021,5.279 84.153,15.838c25.131,10.558 46.582,26.653 64.352,48.285l-67.018,63.349c-9.646,-12.361 -21.958,-22.275 -36.935,-29.743c-14.978,-7.468 -31.351,-11.202 -49.121,-11.202c-17.77,0 -31.859,3.991 -42.267,11.974c-10.408,7.983 -15.612,18.155 -15.612,30.516c0,7.726 2.666,14.679 7.997,20.859c5.331,6.181 15.104,10.301 29.32,12.361l40.363,5.408c34.524,4.636 60.924,15.838 79.202,33.607c18.277,17.768 27.416,42.619 27.416,74.551c0,19.572 -3.681,38.371 -11.043,56.397c-7.361,18.026 -18.404,33.864 -33.127,47.512c-14.724,13.649 -33.001,24.465 -54.833,32.448c-21.831,7.983 -46.963,11.974 -75.394,11.974Z" style="fill:#d1dbbd;fill-rule:nonzero;"/></g><g><circle cx="482.289" cy="212.459" r="188.112" style="fill:#193441;"/><path d="M382.626,61.26l47.344,0l-29.421,147.106l2.367,0l24.348,-30.436l42.61,-43.963l55.123,0l-72.031,72.031l24.348,67.635l20.629,0l-8.116,37.876l-25.363,0c-16.684,0 -27.843,-8.906 -33.48,-26.716l-14.879,-46.33l-26.716,25.025l-9.469,48.021l-47.344,0l50.05,-250.249Z" style="fill:#91aa9d;fill-rule:nonzero;"/><path d="M542.49,366.29c-14.214,0 -27.243,-2.512 -39.087,-7.537c-11.845,-5.025 -21.536,-12.562 -29.073,-22.611l28.427,-26.871c4.737,6.335 10.283,11.305 16.636,14.91c6.353,3.605 14.375,5.407 24.066,5.407c10.552,0 18.036,-1.911 22.451,-5.735c4.414,-3.823 6.622,-8.247 6.622,-13.271c0,-3.277 -1.131,-6.227 -3.392,-8.848c-2.261,-2.622 -6.407,-4.369 -12.437,-5.243l-17.121,-2.294c-14.644,-1.966 -25.842,-6.718 -33.595,-14.255c-7.753,-7.537 -11.629,-18.187 -11.629,-31.951c0,-8.083 1.4,-15.838 4.199,-23.266c2.8,-7.428 7.107,-13.982 12.922,-19.662c5.814,-5.68 13.136,-10.213 21.966,-13.599c8.829,-3.387 19.274,-5.08 31.334,-5.08c13.137,0 25.035,2.24 35.695,6.718c10.66,4.479 19.759,11.306 27.296,20.481l-28.426,26.871c-4.092,-5.243 -9.315,-9.448 -15.668,-12.616c-6.353,-3.168 -13.298,-4.752 -20.835,-4.752c-7.538,0 -13.514,1.693 -17.929,5.08c-4.414,3.386 -6.622,7.701 -6.622,12.944c0,3.277 1.131,6.226 3.392,8.848c2.261,2.621 6.407,4.369 12.437,5.243l17.121,2.294c14.644,1.966 25.842,6.717 33.595,14.254c7.753,7.538 11.629,18.078 11.629,31.623c0,8.302 -1.561,16.276 -4.684,23.922c-3.122,7.647 -7.806,14.364 -14.052,20.154c-6.245,5.789 -13.998,10.377 -23.258,13.763c-9.26,3.386 -19.92,5.079 -31.98,5.079Z" style="fill:#3e606f;fill-rule:nonzero;"/></g><text x="742.768px" y="123.803px" style="font-family:'IBMPlexSansCond-ExtraLight', 'IBM Plex Sans Condensed', sans-serif;font-weight:200;font-stretch:condensed;font-size:96px;fill:#3e606f;">k<tspan x="785.008px 824.176px " y="123.803px 123.803px ">yo</tspan> sua<tspan x="1025.49px 1064.18px " y="123.803px 123.803px ">ya</tspan>n</text><text x="813.808px" y="178.523px" style="font-family:'IBMPlexSansCond-ExtraLight', 'IBM Plex Sans Condensed', sans-serif;font-weight:200;font-stretch:condensed;font-size:48px;fill:#91aa9d;">sof<tspan x="870.688px 884.56px 915.952px " y="178.523px 178.523px 178.523px ">twa</tspan>re engineer</text></svg>