<?xml version="1.0" encoding="utf-8"?>
<!-- Generator: Adobe Illustrator 21.0.0, SVG Export Plug-In . SVG Version: 6.00 Build 0)  -->
<svg version="1.1" xmlns="http://www.w3.org/2000/svg" xmlns:xlink="http://www.w3.org/1999/xlink" x="0px" y="0px"
	 viewBox="0 0 1366 768" style="enable-background:new 0 0 1366 768;" xml:space="preserve">
<style type="text/css">
	.st0{fill:#333333;}
	.st1{fill:#1A1A1A;}
	.st2{fill:#4D4D4D;}
	.st3{fill:#999999;}
	.st4{fill:#CCCCCC;}
</style>
<g id="Layer_2">
	<rect x="-7" y="-6" class="st0" width="1378" height="780"/>
</g>
<g id="Layer_1">
	<g>
		<path class="st1" d="M1004.44,255.7c0-18.08-10.17-28.25-27.12-28.25c-38.42,0-103.96,33.9-161.59,157.07
			c-4.52,9.04-4.52,18.08,10.17,18.08C885.79,402.6,1004.44,307.68,1004.44,255.7z"/>
		<path class="st1" d="M947.5-196C690.96-196,483,11.96,483,268.5C483,525.04,690.96,733,947.5,733S1412,525.04,1412,268.5
			C1412,11.96,1204.04-196,947.5-196z M1295.87,260.22c-3.39,0-7.91-1.13-15.82-9.04c-12.43-11.3-31.64-28.25-49.72-28.25
			c-24.86,0-47.46,19.21-46.33,53.11c0,25.99,11.3,57.63,42.94,109.61c21.47,39.55,33.9,74.58,32.77,101.7
			c0,33.9-23.73,67.8-65.54,99.44c-36.16,27.12-73.45,36.16-98.31,36.16c-36.16,0-59.89-28.25-61.02-56.5
			c-0.56-5.62,0.56-14.04,2.93-22.05c-31.05,51.2-75.71,80.81-98.87,80.81c-22.6,0-42.94-22.6-57.63-64.41
			c-11.3-25.99-28.25-72.32-38.42-103.96c-7.91-25.99-22.6-38.42-30.51-38.42c-6.78,0-19.21,15.82-27.12,35.03
			c-13.56,30.51-35.03,90.4-55.37,137.86c-9.04,19.21-18.08,27.12-21.47,27.12c-16.95,0-31.64-13.56-30.51-24.86
			c2.26-7.91,3.39-19.21,10.17-40.68C754.71,339.32,862.06,4.84,888.05-91.21c7.91-29.38,0-40.68-24.86-44.07
			c-10.17-2.26-15.82-5.65-15.82-7.91c0-4.52,6.78-5.65,11.3-6.78c44.07-6.78,83.62-12.43,101.7-18.08
			c5.65-1.13,11.3-2.26,14.69-2.26c4.52,0,4.52,11.3,1.13,20.34c-22.6,68.93-114.13,335.61-152.55,457.65
			c-1.13,5.65,1.13,13.56,6.78,5.65c40.68-50.85,83.62-82.49,116.39-101.7c28.25-18.08,61.02-24.86,73.45-24.86
			c29.38,0,47.46,13.56,47.46,37.29c0,41.81-41.81,90.4-74.58,114.13c-27.12,19.21-54.24,36.16-92.66,53.11
			c-3.39,1.13-5.65,6.78-4.52,11.3c10.17,48.59,23.73,100.57,38.42,135.6c12.43,27.12,20.34,37.29,31.64,37.29
			c15.82,0,42.94-15.82,74.58-61.02c10.15-12.41,16.92-9.05,7.96,10.05c4.46-3.29,8.91-4.33,12.26,1.25
			c18.08,32.77,47.46,62.15,84.75,62.15c33.9,0,62.15-22.6,61.02-63.28c0-21.47-9.04-50.85-33.9-96.05
			c-29.38-51.98-38.42-80.23-38.42-99.44c0-28.25,15.82-68.93,54.24-101.7c29.38-25.99,61.02-40.68,85.88-40.68
			c16.95,0,35.03,9.04,44.07,21.47c5.65,5.65,7.91,12.43,7.91,19.21C1326.38,242.14,1304.91,260.22,1295.87,260.22z"/>
	</g>
	<g>
		<path class="st2" d="M221.19,484.74c0-13.08-7.36-20.43-19.62-20.43c-27.79,0-75.2,24.52-116.89,113.62
			c-3.27,6.54-3.27,13.08,7.36,13.08C135.36,591,221.19,522.34,221.19,484.74z"/>
		<path class="st2" d="M180,158c-185.57,0-336,150.43-336,336S-5.57,830,180,830s336-150.43,336-336S365.57,158,180,158z
			 M431.99,488.01c-2.45,0-5.72-0.81-11.44-6.54c-8.99-8.17-22.89-20.43-35.97-20.43c-17.98,0-34.33,13.9-33.51,38.42
			c0,18.8,8.17,41.69,31.06,79.29c15.53,28.61,24.52,53.95,23.7,73.57c0,24.52-17.17,49.04-47.41,71.93
			c-26.16,19.62-53.13,26.16-71.11,26.16c-26.16,0-43.32-20.43-44.14-40.87c-0.41-4.07,0.4-10.15,2.12-15.95
			c-22.46,37.04-54.77,58.46-71.52,58.46c-16.35,0-31.06-16.35-41.69-46.59c-8.17-18.8-20.43-52.31-27.79-75.2
			c-5.72-18.8-16.35-27.79-22.07-27.79c-4.9,0-13.9,11.44-19.62,25.34c-9.81,22.07-25.34,65.39-40.05,99.72
			c-6.54,13.9-13.08,19.62-15.53,19.62c-12.26,0-22.89-9.81-22.07-17.98c1.63-5.72,2.45-13.9,7.36-29.43
			C40.54,545.23,118.2,303.28,137,233.8c5.72-21.25,0-29.43-17.98-31.88c-7.36-1.63-11.44-4.09-11.44-5.72c0-3.27,4.9-4.09,8.17-4.9
			c31.88-4.91,60.49-8.99,73.57-13.08c4.09-0.82,8.17-1.63,10.63-1.63c3.27,0,3.27,8.18,0.82,14.71
			c-16.35,49.86-82.56,242.77-110.35,331.05c-0.82,4.09,0.82,9.81,4.9,4.09c29.43-36.78,60.49-59.67,84.19-73.57
			c20.43-13.08,44.14-17.98,53.13-17.98c21.25,0,34.33,9.81,34.33,26.98c0,30.24-30.24,65.39-53.95,82.56
			c-19.62,13.89-39.24,26.16-67.03,38.42c-2.45,0.82-4.09,4.91-3.27,8.17c7.36,35.15,17.17,72.75,27.79,98.09
			c8.99,19.62,14.71,26.98,22.89,26.98c11.44,0,31.06-11.44,53.95-44.14c7.34-8.97,12.24-6.55,5.76,7.27
			c3.23-2.38,6.45-3.13,8.87,0.9c13.08,23.7,34.33,44.96,61.31,44.96c24.52,0,44.96-16.35,44.14-45.78
			c0-15.53-6.54-36.78-24.52-69.48c-21.25-37.6-27.79-58.04-27.79-71.93c0-20.43,11.44-49.86,39.23-73.57
			c21.25-18.8,44.14-29.43,62.12-29.43c12.26,0,25.34,6.54,31.88,15.53c4.09,4.09,5.72,8.99,5.72,13.89
			C454.06,474.93,438.53,488.01,431.99,488.01z"/>
	</g>
	<g>
		<path class="st3" d="M472.1,173.19c0-4.62-2.6-7.23-6.94-7.23c-9.83,0-26.59,8.67-41.33,40.17c-1.16,2.31-1.16,4.62,2.6,4.62
			C441.75,210.76,472.1,186.49,472.1,173.19z"/>
		<path class="st3" d="M459,43c-72.9,0-132,59.1-132,132c0,72.9,59.1,132,132,132s132-59.1,132-132C591,102.1,531.9,43,459,43z
			 M558,172.65c-0.96,0-2.25-0.32-4.5-2.57c-3.53-3.21-8.99-8.03-14.13-8.03c-7.06,0-13.49,5.46-13.17,15.09
			c0,7.39,3.21,16.38,12.2,31.15c6.1,11.24,9.63,21.19,9.31,28.9c0,9.63-6.74,19.27-18.63,28.26
			c-10.28,7.71-20.87,10.28-27.94,10.28c-10.28,0-17.02-8.03-17.34-16.06c-0.16-1.6,0.16-3.99,0.83-6.27
			c-8.82,14.55-21.52,22.97-28.1,22.97c-6.42,0-12.2-6.42-16.38-18.3c-3.21-7.39-8.03-20.55-10.92-29.54
			c-2.25-7.39-6.42-10.92-8.67-10.92c-1.93,0-5.46,4.5-7.71,9.95c-3.85,8.67-9.95,25.69-15.74,39.18c-2.57,5.46-5.14,7.71-6.1,7.71
			c-4.82,0-8.99-3.85-8.67-7.06c0.64-2.25,0.96-5.46,2.89-11.56c18.95-60.69,49.45-155.74,56.84-183.04
			c2.25-8.35,0-11.56-7.06-12.52c-2.89-0.64-4.5-1.61-4.5-2.25c0-1.28,1.93-1.61,3.21-1.93c12.52-1.93,23.76-3.53,28.9-5.14
			c1.61-0.32,3.21-0.64,4.17-0.64c1.28,0,1.28,3.21,0.32,5.78c-6.42,19.59-32.43,95.37-43.35,130.05c-0.32,1.61,0.32,3.85,1.93,1.61
			c11.56-14.45,23.76-23.44,33.08-28.9c8.03-5.14,17.34-7.07,20.87-7.07c8.35,0,13.49,3.85,13.49,10.6
			c0,11.88-11.88,25.69-21.19,32.43c-7.71,5.46-15.41,10.28-26.33,15.09c-0.96,0.32-1.61,1.93-1.28,3.21
			c2.89,13.81,6.74,28.58,10.92,38.53c3.53,7.71,5.78,10.6,8.99,10.6c4.5,0,12.2-4.49,21.19-17.34c2.88-3.53,4.81-2.57,2.26,2.86
			c1.27-0.94,2.53-1.23,3.48,0.35c5.14,9.31,13.49,17.66,24.08,17.66c9.63,0,17.66-6.42,17.34-17.98c0-6.1-2.57-14.45-9.63-27.3
			c-8.35-14.77-10.92-22.8-10.92-28.26c0-8.03,4.5-19.59,15.41-28.9c8.35-7.39,17.34-11.56,24.41-11.56c4.82,0,9.96,2.57,12.52,6.1
			c1.61,1.61,2.25,3.53,2.25,5.46C566.67,167.51,560.57,172.65,558,172.65z"/>
	</g>
	<g>
		<path class="st4" d="M652.74,98.22h6.57v79.14h0.3L695,133.91h7.62l-23.29,28.37l27.18,43.3h-7.32l-23.74-38.38l-16.13,18.81
			v19.56h-6.57V98.22z"/>
		<path class="st4" d="M729.18,232.17c8.81,0,14.78-8.06,18.37-18.96l1.94-6.27l-29.42-73.02h7.17l17.32,45.1
			c2.24,5.97,5.08,13.74,7.76,20.01h0.6c2.24-6.27,4.63-14.04,6.57-20.01l15.38-45.1h6.72l-28.37,80.63
			c-4.03,11.95-11.2,23.74-24.04,23.74c-2.69,0-5.38-0.6-7.32-1.49l1.49-5.82C724.85,231.57,727.09,232.17,729.18,232.17z"/>
		<path class="st4" d="M821.25,132.12c17.32,0,32.25,13.74,32.25,37.78c0,23.74-14.93,37.48-32.25,37.48
			c-17.17,0-32.1-13.74-32.1-37.48C789.15,145.86,804.08,132.12,821.25,132.12z M821.25,201.55c14.48,0,25.38-12.84,25.38-31.66
			c0-18.96-10.9-31.96-25.38-31.96s-25.24,12.99-25.24,31.96C796.01,188.71,806.77,201.55,821.25,201.55z"/>
		<path class="st4" d="M899.64,192.6c6.12,5.08,12.54,9.11,22.85,9.11c11.2,0,17.02-6.57,17.02-14.19c0-8.96-9.26-12.84-17.47-15.83
			c-10.9-3.88-22.85-8.21-22.85-20.46c0-10.45,8.21-19.11,23.15-19.11c7.62,0,15.23,3.14,20.46,7.47l-3.58,4.63
			c-4.78-3.58-9.85-6.42-17.17-6.42c-11.05,0-16.13,6.42-16.13,12.99c0,7.91,8.36,11.35,16.87,14.48
			c11.2,4.18,23.44,7.91,23.44,21.95c0,10.75-8.66,20.16-24.19,20.16c-10.6,0-19.86-4.48-26.28-9.86L899.64,192.6z"/>
		<path class="st4" d="M964.14,133.91h6.57v45.1c0,15.23,4.78,22.4,16.28,22.4c8.51,0,14.78-4.48,23.14-14.63v-52.86h6.57v71.67
			h-5.52l-0.75-11.95h-0.3c-7.02,8.21-14.48,13.74-24.34,13.74c-14.78,0-21.65-8.96-21.65-27.48V133.91z"/>
		<path class="st4" d="M1086.43,160.64c0.3-10.9-2.84-22.7-16.87-22.7c-9.71,0-18.07,4.78-22.85,8.36l-2.99-4.93
			c5.08-3.58,14.93-9.26,26.58-9.26c17.02,0,22.7,12.24,22.7,27.62v45.84h-5.52l-0.75-9.26h-0.3c-7.32,5.82-15.98,11.05-25.38,11.05
			c-11.35,0-20.91-6.12-20.91-19.71C1040.14,171.84,1054.62,164.22,1086.43,160.64z M1062.09,201.7c8.21,0,15.53-4.03,24.34-11.65
			v-24.34c-29.42,3.43-39.42,10.3-39.42,21.65C1047.01,197.67,1053.88,201.7,1062.09,201.7z"/>
		<path class="st4" d="M1115.84,232.17c8.81,0,14.78-8.06,18.37-18.96l1.94-6.27l-29.42-73.02h7.17l17.32,45.1
			c2.24,5.97,5.08,13.74,7.76,20.01h0.6c2.24-6.27,4.63-14.04,6.57-20.01l15.38-45.1h6.72l-28.37,80.63
			c-4.03,11.95-11.2,23.74-24.04,23.74c-2.69,0-5.38-0.6-7.32-1.49l1.49-5.82C1111.51,231.57,1113.75,232.17,1115.84,232.17z"/>
		<path class="st4" d="M1223.05,160.64c0.3-10.9-2.84-22.7-16.87-22.7c-9.71,0-18.07,4.78-22.85,8.36l-2.99-4.93
			c5.08-3.58,14.93-9.26,26.58-9.26c17.02,0,22.7,12.24,22.7,27.62v45.84h-5.53l-0.75-9.26h-0.3c-7.32,5.82-15.98,11.05-25.38,11.05
			c-11.35,0-20.91-6.12-20.91-19.71C1176.76,171.84,1191.25,164.22,1223.05,160.64z M1198.71,201.7c8.21,0,15.53-4.03,24.34-11.65
			v-24.34c-29.42,3.43-39.42,10.3-39.42,21.65C1183.63,197.67,1190.5,201.7,1198.71,201.7z"/>
		<path class="st4" d="M1255.3,133.91h5.67l0.6,11.05h0.45c7.32-7.32,14.78-12.84,24.64-12.84c14.78,0,21.65,8.96,21.65,27.48v45.99
			h-6.57v-45.1c0-15.23-4.78-22.4-16.42-22.4c-8.51,0-14.63,4.48-23.44,13.44v54.05h-6.57V133.91z"/>
	</g>
	<g>
		<path class="st3" d="M874.48,285.78c2.46,2.04,5.04,3.66,9.18,3.66c4.5,0,6.84-2.64,6.84-5.7c0-3.6-3.72-5.16-7.02-6.36
			c-4.38-1.56-9.18-3.3-9.18-8.22c0-4.2,3.3-7.68,9.3-7.68c3.06,0,6.12,1.26,8.22,3l-1.44,1.86c-1.92-1.44-3.96-2.58-6.9-2.58
			c-4.44,0-6.48,2.58-6.48,5.22c0,3.18,3.36,4.56,6.78,5.82c4.5,1.68,9.42,3.18,9.42,8.82c0,4.32-3.48,8.1-9.72,8.1
			c-4.26,0-7.98-1.8-10.56-3.96L874.48,285.78z"/>
		<path class="st3" d="M911.32,261.48c6.96,0,12.96,5.52,12.96,15.18c0,9.54-6,15.06-12.96,15.06c-6.9,0-12.9-5.52-12.9-15.06
			C898.42,267,904.42,261.48,911.32,261.48z M911.32,289.38c5.82,0,10.2-5.16,10.2-12.72c0-7.62-4.38-12.84-10.2-12.84
			s-10.14,5.22-10.14,12.84C901.18,284.22,905.5,289.38,911.32,289.38z"/>
		<path class="st3" d="M959.08,290.64c-1.68,0.6-3.54,1.08-4.74,1.08c-5.52,0-7.14-3.54-7.14-8.7v-18.54h-11.22V291h-2.64v-26.52
			h-3.96v-2.04l3.96-0.24v-6.42c0-5.7,2.58-8.64,7.14-8.64c1.32,0,2.88,0.36,4.2,0.96l-0.72,2.16c-1.2-0.6-2.4-0.84-3.48-0.84
			c-3.06,0-4.5,2.4-4.5,6.54v6.24h11.28l0.36-8.34h2.22v8.34h8.4v2.28h-8.4v18.78c0,3.66,0.96,6.12,4.92,6.12
			c1.08,0,2.58-0.42,3.6-0.9L959.08,290.64z"/>
		<path class="st3" d="M961.18,262.2h2.88l5.16,18.66c0.72,2.64,1.38,5.1,1.98,7.68h0.24c0.66-2.58,1.38-5.04,2.1-7.68l5.22-18.66
			h3.18l5.22,18.66c0.72,2.64,1.44,5.1,2.16,7.68h0.24c0.66-2.58,1.38-5.04,2.04-7.68l5.1-18.66h2.7l-8.28,28.8h-3.48l-5.04-17.88
			c-0.84-2.76-1.38-5.4-2.22-8.22h-0.24c-0.66,2.82-1.38,5.58-2.28,8.34L972.88,291h-3.18L961.18,262.2z"/>
		<path class="st3" d="M1022.74,272.94c0.12-4.38-1.14-9.12-6.78-9.12c-3.9,0-7.26,1.92-9.18,3.36l-1.2-1.98
			c2.04-1.44,6-3.72,10.68-3.72c6.84,0,9.12,4.92,9.12,11.1V291h-2.22l-0.3-3.72h-0.12c-2.94,2.34-6.42,4.44-10.2,4.44
			c-4.56,0-8.4-2.46-8.4-7.92C1004.14,277.44,1009.96,274.38,1022.74,272.94z M1012.96,289.44c3.3,0,6.24-1.62,9.78-4.68v-9.78
			c-11.82,1.38-15.84,4.14-15.84,8.7C1006.9,287.82,1009.66,289.44,1012.96,289.44z"/>
		<path class="st3" d="M1035.7,262.2h2.28l0.24,5.34h0.18c1.92-3.54,4.74-6.06,8.16-6.06c1.08,0,1.92,0.12,2.88,0.6l-0.6,2.4
			c-0.96-0.36-1.5-0.48-2.64-0.48c-2.58,0-5.64,1.98-7.86,7.38V291h-2.64V262.2z"/>
		<path class="st3" d="M1064.26,261.48c6.84,0,11.04,4.86,11.04,13.32c0,0.72,0,1.44-0.12,2.16h-20.76
			c0.12,7.26,4.38,12.48,10.86,12.48c3.12,0,5.58-1.02,7.74-2.58l1.08,2.04c-2.28,1.38-4.86,2.82-9.06,2.82
			c-7.38,0-13.32-5.64-13.32-15.06S1057.84,261.48,1064.26,261.48z M1072.78,274.92c0-7.38-3.3-11.16-8.46-11.16
			c-4.92,0-9.3,4.26-9.9,11.16H1072.78z"/>
		<path class="st3" d="M1105.18,261.48c6.84,0,11.04,4.86,11.04,13.32c0,0.72,0,1.44-0.12,2.16h-20.76
			c0.12,7.26,4.38,12.48,10.86,12.48c3.12,0,5.58-1.02,7.74-2.58l1.08,2.04c-2.28,1.38-4.86,2.82-9.06,2.82
			c-7.38,0-13.32-5.64-13.32-15.06S1098.76,261.48,1105.18,261.48z M1113.7,274.92c0-7.38-3.3-11.16-8.46-11.16
			c-4.92,0-9.3,4.26-9.9,11.16H1113.7z"/>
		<path class="st3" d="M1124.01,262.2h2.28l0.24,4.44h0.18c2.94-2.94,5.94-5.16,9.9-5.16c5.94,0,8.7,3.6,8.7,11.04V291h-2.64v-18.12
			c0-6.12-1.92-9-6.6-9c-3.42,0-5.88,1.8-9.42,5.4V291h-2.64V262.2z"/>
		<path class="st3" d="M1157.79,289.92v-0.24c-1.44-0.84-2.52-2.4-2.52-4.62c0-2.58,1.86-4.38,3.12-5.28v-0.24
			c-1.8-1.56-3.6-4.44-3.6-7.92c0-5.94,4.5-10.14,10.14-10.14c1.56,0,2.88,0.36,3.78,0.72h9.78v2.22h-6.72
			c1.86,1.62,3.18,4.2,3.18,7.26c0,5.88-4.38,10.14-10.02,10.14c-1.62,0-3.48-0.42-4.8-1.2c-1.26,1.02-2.34,2.22-2.34,4.14
			c0,2.1,1.2,3.78,5.52,3.78h6.18c6.48,0,9.48,2.04,9.48,6.6c0,4.98-5.34,9.72-13.62,9.72c-7.26,0-11.82-3.12-11.82-7.98
			C1153.54,294.36,1155.16,291.84,1157.79,289.92z M1165.65,302.7c6.48,0,10.62-3.66,10.62-7.26c0-3.18-2.34-4.38-6.66-4.38h-6.18
			c-0.6,0-2.1-0.12-3.6-0.48c-2.64,1.8-3.78,4.02-3.78,6.06C1156.05,300.24,1159.54,302.7,1165.65,302.7z M1172.37,271.62
			c0-4.86-3.36-7.98-7.44-7.98s-7.5,3.06-7.5,7.98c0,4.86,3.48,8.1,7.5,8.1C1168.89,279.72,1172.37,276.48,1172.37,271.62z"/>
		<path class="st3" d="M1184.13,252.9c0-1.5,1.08-2.4,2.4-2.4c1.32,0,2.4,0.9,2.4,2.4c0,1.38-1.08,2.34-2.4,2.34
			C1185.21,255.24,1184.13,254.28,1184.13,252.9z M1185.15,262.2h2.64V291h-2.64V262.2z"/>
		<path class="st3" d="M1198.89,262.2h2.28l0.24,4.44h0.18c2.94-2.94,5.94-5.16,9.9-5.16c5.94,0,8.7,3.6,8.7,11.04V291h-2.64v-18.12
			c0-6.12-1.92-9-6.6-9c-3.42,0-5.88,1.8-9.42,5.4V291h-2.64V262.2z"/>
		<path class="st3" d="M1240.95,261.48c6.84,0,11.04,4.86,11.04,13.32c0,0.72,0,1.44-0.12,2.16h-20.76
			c0.12,7.26,4.38,12.48,10.86,12.48c3.12,0,5.58-1.02,7.74-2.58l1.08,2.04c-2.28,1.38-4.86,2.82-9.06,2.82
			c-7.38,0-13.32-5.64-13.32-15.06S1234.53,261.48,1240.95,261.48z M1249.47,274.92c0-7.38-3.3-11.16-8.46-11.16
			c-4.92,0-9.3,4.26-9.9,11.16H1249.47z"/>
		<path class="st3" d="M1269.93,261.48c6.84,0,11.04,4.86,11.04,13.32c0,0.72,0,1.44-0.12,2.16h-20.76
			c0.12,7.26,4.38,12.48,10.86,12.48c3.12,0,5.58-1.02,7.74-2.58l1.08,2.04c-2.28,1.38-4.86,2.82-9.06,2.82
			c-7.38,0-13.32-5.64-13.32-15.06S1263.51,261.48,1269.93,261.48z M1278.45,274.92c0-7.38-3.3-11.16-8.46-11.16
			c-4.92,0-9.3,4.26-9.9,11.16H1278.45z"/>
		<path class="st3" d="M1288.77,262.2h2.28l0.24,5.34h0.18c1.92-3.54,4.74-6.06,8.16-6.06c1.08,0,1.92,0.12,2.88,0.6l-0.6,2.4
			c-0.96-0.36-1.5-0.48-2.64-0.48c-2.58,0-5.64,1.98-7.86,7.38V291h-2.64V262.2z"/>
	</g>
	<g>
		<path class="st1" d="M1312.72,713.92c0-1.49-0.84-2.33-2.23-2.33c-3.16,0-8.56,2.79-13.31,12.93c-0.37,0.74-0.37,1.49,0.84,1.49
			C1302.95,726.02,1312.72,718.2,1312.72,713.92z"/>
		<path class="st1" d="M1308.5,672c-23.47,0-42.5,19.03-42.5,42.5s19.03,42.5,42.5,42.5s42.5-19.03,42.5-42.5
			S1331.97,672,1308.5,672z M1340.37,713.74c-0.31,0-0.72-0.1-1.45-0.83c-1.14-1.03-2.89-2.58-4.55-2.58
			c-2.27,0-4.34,1.76-4.24,4.86c0,2.38,1.03,5.27,3.93,10.03c1.96,3.62,3.1,6.82,3,9.31c0,3.1-2.17,6.2-6,9.1
			c-3.31,2.48-6.72,3.31-8.99,3.31c-3.31,0-5.48-2.58-5.58-5.17c-0.05-0.51,0.05-1.28,0.27-2.02c-2.84,4.68-6.93,7.39-9.05,7.39
			c-2.07,0-3.93-2.07-5.27-5.89c-1.03-2.38-2.58-6.62-3.52-9.51c-0.72-2.38-2.07-3.52-2.79-3.52c-0.62,0-1.76,1.45-2.48,3.21
			c-1.24,2.79-3.21,8.27-5.07,12.61c-0.83,1.76-1.65,2.48-1.96,2.48c-1.55,0-2.9-1.24-2.79-2.27c0.21-0.72,0.31-1.76,0.93-3.72
			c6.1-19.54,15.92-50.15,18.3-58.93c0.72-2.69,0-3.72-2.27-4.03c-0.93-0.21-1.45-0.52-1.45-0.72c0-0.41,0.62-0.52,1.03-0.62
			c4.03-0.62,7.65-1.14,9.31-1.65c0.52-0.1,1.03-0.21,1.34-0.21c0.41,0,0.41,1.03,0.1,1.86c-2.07,6.31-10.44,30.71-13.96,41.87
			c-0.1,0.52,0.1,1.24,0.62,0.52c3.72-4.65,7.65-7.55,10.65-9.31c2.58-1.65,5.58-2.27,6.72-2.27c2.69,0,4.34,1.24,4.34,3.41
			c0,3.83-3.83,8.27-6.82,10.44c-2.48,1.76-4.96,3.31-8.48,4.86c-0.31,0.1-0.52,0.62-0.41,1.03c0.93,4.45,2.17,9.2,3.52,12.41
			c1.14,2.48,1.86,3.41,2.89,3.41c1.45,0,3.93-1.45,6.82-5.58c0.93-1.14,1.55-0.83,0.73,0.92c0.41-0.3,0.82-0.4,1.12,0.11
			c1.65,3,4.34,5.69,7.75,5.69c3.1,0,5.69-2.07,5.58-5.79c0-1.96-0.83-4.65-3.1-8.79c-2.69-4.76-3.52-7.34-3.52-9.1
			c0-2.58,1.45-6.31,4.96-9.31c2.69-2.38,5.58-3.72,7.86-3.72c1.55,0,3.21,0.83,4.03,1.96c0.52,0.52,0.72,1.14,0.72,1.76
			C1343.17,712.09,1341.2,713.74,1340.37,713.74z"/>
	</g>
</g>
</svg>
