<?xml version="1.0" encoding="utf-8"?>
<!-- Generator: Adobe Illustrator 19.1.0, SVG Export Plug-In . SVG Version: 6.00 Build 0)  -->
<svg version="1.1" id="Layer_1" xmlns="http://www.w3.org/2000/svg" xmlns:xlink="http://www.w3.org/1999/xlink" x="0px" y="0px"
	 viewBox="0 0 960 560" style="enable-background:new 0 0 960 560;" xml:space="preserve">
<style type="text/css">
	.st0{fill:#29ABE2;}
	.st1{fill:#0071BC;}
	.st2{fill:#009245;}
	.st3{fill:#C1DEE5;}
	.st4{fill:#F2F2F2;}
	.st5{fill:#B8EDFF;}
	.st6{fill:#7AC943;}
</style>
<rect x="-3.83" y="-5.46" class="st0" width="963.83" height="346.46"/>
<rect x="-15.09" y="290.16" class="st1" width="978.15" height="273.25"/>
<path class="st2" d="M505.25,322c-46.15-42.02-122.69-70.56-209.32-70.56c-4.88,0-9.73,0.14-14.54,0.32
	c-42.41-53.19-128.13-89.62-226.97-89.62c-138.25,0-250.81,71.89-255.12,159.86H505.25z"/>
<polygon class="st3" points="253,227 253,216 245,216 245,200 217,200 217,216 210,216 210,227 203,227 203,296 259,296 259,227 "/>
<rect x="147.67" y="200.09" class="st3" width="43.79" height="95.63"/>
<rect x="81.71" y="194.08" class="st3" width="24.64" height="101.64"/>
<rect x="39.35" y="237.09" class="st3" width="33.67" height="58.63"/>
<g>
	<path class="st4" d="M458.1,52.42h7.49v47.42l20.45-19.78h10.66L475,100.52L498.9,125h-11.04l-22.27-23.62V125h-7.49V52.42z"/>
	<path class="st4" d="M522.62,135.27c-0.77,1.92-1.55,3.66-2.35,5.23c-0.8,1.57-1.76,2.91-2.88,4.03c-1.12,1.12-2.46,1.98-4.03,2.59
		c-1.57,0.61-3.47,0.91-5.71,0.91c-1.09,0-2.22-0.06-3.41-0.19c-1.19-0.13-2.29-0.45-3.31-0.96l0.96-6.53
		c0.77,0.32,1.57,0.53,2.4,0.62c0.83,0.1,1.79,0.14,2.88,0.14c2.43,0,4.22-0.67,5.38-2.02c1.15-1.34,2.14-3.14,2.98-5.38l3.07-8.45
		l-18.62-45.22h8.74l13.92,35.23h0.19l13.34-35.23h8.16L522.62,135.27z"/>
	<path class="st4" d="M549.78,102.54c0-3.52,0.61-6.72,1.82-9.6c1.21-2.88,2.88-5.36,4.99-7.44c2.11-2.08,4.64-3.7,7.58-4.85
		c2.94-1.15,6.14-1.73,9.6-1.73c3.46,0,6.66,0.58,9.6,1.73s5.47,2.77,7.58,4.85c2.11,2.08,3.78,4.56,4.99,7.44
		c1.21,2.88,1.82,6.08,1.82,9.6c0,3.52-0.61,6.72-1.82,9.6c-1.22,2.88-2.88,5.36-4.99,7.44c-2.11,2.08-4.64,3.7-7.58,4.85
		c-2.94,1.15-6.14,1.73-9.6,1.73c-3.46,0-6.66-0.58-9.6-1.73c-2.95-1.15-5.47-2.77-7.58-4.85c-2.11-2.08-3.78-4.56-4.99-7.44
		C550.39,109.26,549.78,106.06,549.78,102.54z M557.85,102.54c0,2.37,0.37,4.56,1.1,6.58c0.74,2.02,1.81,3.78,3.22,5.28
		c1.41,1.5,3.09,2.69,5.04,3.55c1.95,0.86,4.14,1.3,6.58,1.3c2.43,0,4.62-0.43,6.58-1.3c1.95-0.86,3.63-2.05,5.04-3.55
		c1.41-1.5,2.48-3.26,3.22-5.28c0.74-2.02,1.1-4.21,1.1-6.58c0-2.37-0.37-4.56-1.1-6.58c-0.74-2.02-1.81-3.78-3.22-5.28
		c-1.41-1.5-3.09-2.69-5.04-3.55c-1.95-0.86-4.14-1.3-6.58-1.3c-2.43,0-4.62,0.43-6.58,1.3c-1.95,0.86-3.63,2.05-5.04,3.55
		c-1.41,1.5-2.48,3.26-3.22,5.28C558.21,97.98,557.85,100.17,557.85,102.54z"/>
	<path class="st4" d="M637.05,113.19c1.47,1.86,3.09,3.33,4.85,4.42c1.76,1.09,3.98,1.63,6.67,1.63c1.15,0,2.32-0.13,3.5-0.38
		c1.18-0.25,2.26-0.67,3.22-1.25c0.96-0.58,1.73-1.3,2.3-2.16c0.58-0.86,0.86-1.9,0.86-3.12c0-1.22-0.27-2.21-0.82-2.98
		c-0.54-0.77-1.26-1.42-2.16-1.97c-0.9-0.54-1.92-0.97-3.07-1.3c-1.15-0.32-2.34-0.61-3.55-0.86c-2.11-0.45-4.13-0.96-6.05-1.54
		s-3.6-1.33-5.04-2.26c-1.44-0.93-2.59-2.13-3.46-3.6c-0.86-1.47-1.29-3.36-1.29-5.66c0-2.17,0.48-4.09,1.44-5.76
		c0.96-1.66,2.24-3.04,3.84-4.13c1.6-1.09,3.39-1.92,5.38-2.5c1.98-0.58,4.03-0.86,6.14-0.86c3.2,0,6.16,0.64,8.88,1.92
		c2.72,1.28,4.85,3.36,6.38,6.24l-6.24,4.13c-0.96-1.6-2.22-2.9-3.79-3.89c-1.57-0.99-3.47-1.49-5.71-1.49
		c-1.02,0-2.06,0.13-3.12,0.38c-1.06,0.26-2,0.64-2.83,1.15c-0.83,0.51-1.52,1.17-2.06,1.97c-0.54,0.8-0.82,1.71-0.82,2.74
		c0,0.96,0.3,1.78,0.91,2.45c0.61,0.67,1.44,1.26,2.5,1.78c1.06,0.51,2.27,0.96,3.65,1.34c1.38,0.38,2.8,0.71,4.27,0.96
		c1.98,0.38,3.87,0.88,5.66,1.49c1.79,0.61,3.36,1.43,4.7,2.45c1.34,1.02,2.4,2.3,3.17,3.84s1.15,3.42,1.15,5.66
		c0,2.56-0.51,4.74-1.54,6.53c-1.02,1.79-2.38,3.25-4.08,4.37c-1.7,1.12-3.62,1.94-5.76,2.45c-2.14,0.51-4.34,0.77-6.58,0.77
		c-3.84,0-7.15-0.59-9.94-1.78s-5.3-3.38-7.54-6.58L637.05,113.19z"/>
	<path class="st4" d="M716.15,114.34c0,2.05,0.06,3.97,0.19,5.76c0.13,1.79,0.19,3.42,0.19,4.9h-7.1c0-1.21-0.03-2.43-0.1-3.65
		c-0.06-1.21-0.1-2.46-0.1-3.74h-0.19c-0.51,1.09-1.23,2.15-2.16,3.17c-0.93,1.02-2.03,1.94-3.31,2.74
		c-1.28,0.8-2.72,1.44-4.32,1.92s-3.33,0.72-5.18,0.72c-2.94,0-5.49-0.45-7.63-1.34c-2.15-0.9-3.92-2.14-5.33-3.74
		c-1.41-1.6-2.45-3.54-3.12-5.81c-0.67-2.27-1.01-4.75-1.01-7.44V80.07h7.49v26.98c0,3.78,0.83,6.75,2.5,8.93
		c1.66,2.18,4.25,3.26,7.78,3.26c2.43,0,4.53-0.42,6.29-1.25c1.76-0.83,3.2-2.02,4.32-3.55c1.12-1.54,1.95-3.36,2.5-5.47
		c0.54-2.11,0.82-4.45,0.82-7.01V80.07h7.49V114.34z"/>
	<path class="st4" d="M729.78,85.83c2.3-2.37,5.04-4.11,8.21-5.23c3.17-1.12,6.38-1.68,9.65-1.68c6.66,0,11.46,1.57,14.4,4.7
		c2.94,3.14,4.42,7.9,4.42,14.3v19.3c0,1.28,0.06,2.61,0.19,3.98c0.13,1.38,0.29,2.64,0.48,3.79h-7.2c-0.26-1.02-0.4-2.16-0.43-3.41
		c-0.03-1.25-0.05-2.35-0.05-3.31h-0.19c-1.47,2.3-3.44,4.19-5.9,5.66c-2.46,1.47-5.42,2.21-8.88,2.21c-2.3,0-4.46-0.29-6.48-0.86
		c-2.02-0.58-3.78-1.42-5.28-2.54c-1.5-1.12-2.71-2.51-3.6-4.18c-0.9-1.66-1.34-3.58-1.34-5.76c0-3.71,0.96-6.62,2.88-8.74
		c1.92-2.11,4.3-3.68,7.15-4.7c2.85-1.02,5.92-1.66,9.21-1.92c3.3-0.26,6.32-0.38,9.07-0.38h2.88v-1.34c0-3.26-0.98-5.73-2.93-7.39
		c-1.95-1.66-4.69-2.5-8.21-2.5c-2.43,0-4.82,0.4-7.15,1.2c-2.34,0.8-4.4,2.03-6.19,3.7L729.78,85.83z M751.48,103.4
		c-4.8,0-8.61,0.67-11.42,2.02c-2.82,1.34-4.22,3.55-4.22,6.62c0,2.82,0.94,4.82,2.83,6c1.89,1.19,4.24,1.78,7.06,1.78
		c2.17,0,4.08-0.37,5.71-1.1c1.63-0.73,2.99-1.71,4.08-2.93c1.09-1.22,1.92-2.64,2.5-4.27c0.58-1.63,0.9-3.38,0.96-5.23v-2.88
		H751.48z"/>
	<path class="st4" d="M796.69,135.27c-0.77,1.92-1.55,3.66-2.35,5.23c-0.8,1.57-1.76,2.91-2.88,4.03c-1.12,1.12-2.46,1.98-4.03,2.59
		c-1.57,0.61-3.47,0.91-5.71,0.91c-1.09,0-2.22-0.06-3.41-0.19c-1.19-0.13-2.29-0.45-3.31-0.96l0.96-6.53
		c0.77,0.32,1.57,0.53,2.4,0.62c0.83,0.1,1.79,0.14,2.88,0.14c2.43,0,4.22-0.67,5.38-2.02c1.15-1.34,2.14-3.14,2.98-5.38l3.07-8.45
		l-18.62-45.22h8.74l13.92,35.23h0.19l13.34-35.23h8.16L796.69,135.27z"/>
	<path class="st4" d="M825.88,85.83c2.3-2.37,5.04-4.11,8.21-5.23c3.17-1.12,6.38-1.68,9.65-1.68c6.66,0,11.46,1.57,14.4,4.7
		c2.94,3.14,4.42,7.9,4.42,14.3v19.3c0,1.28,0.06,2.61,0.19,3.98c0.13,1.38,0.29,2.64,0.48,3.79h-7.2c-0.26-1.02-0.4-2.16-0.43-3.41
		c-0.03-1.25-0.05-2.35-0.05-3.31h-0.19c-1.47,2.3-3.44,4.19-5.9,5.66c-2.46,1.47-5.42,2.21-8.88,2.21c-2.3,0-4.46-0.29-6.48-0.86
		c-2.02-0.58-3.78-1.42-5.28-2.54c-1.5-1.12-2.7-2.51-3.6-4.18c-0.9-1.66-1.34-3.58-1.34-5.76c0-3.71,0.96-6.62,2.88-8.74
		c1.92-2.11,4.3-3.68,7.15-4.7c2.85-1.02,5.92-1.66,9.22-1.92c3.3-0.26,6.32-0.38,9.07-0.38h2.88v-1.34c0-3.26-0.98-5.73-2.93-7.39
		c-1.95-1.66-4.69-2.5-8.21-2.5c-2.43,0-4.82,0.4-7.15,1.2c-2.34,0.8-4.4,2.03-6.19,3.7L825.88,85.83z M847.57,103.4
		c-4.8,0-8.61,0.67-11.42,2.02c-2.82,1.34-4.22,3.55-4.22,6.62c0,2.82,0.94,4.82,2.83,6c1.89,1.19,4.24,1.78,7.06,1.78
		c2.17,0,4.08-0.37,5.71-1.1c1.63-0.73,2.99-1.71,4.08-2.93c1.09-1.22,1.92-2.64,2.5-4.27c0.58-1.63,0.9-3.38,0.96-5.23v-2.88
		H847.57z"/>
	<path class="st4" d="M876.28,90.73c0-2.05-0.06-3.97-0.19-5.76c-0.13-1.79-0.19-3.42-0.19-4.9h7.1c0,1.22,0.03,2.43,0.1,3.65
		c0.06,1.22,0.1,2.46,0.1,3.74h0.19c0.51-1.09,1.23-2.14,2.16-3.17c0.93-1.02,2.03-1.94,3.31-2.74c1.28-0.8,2.72-1.44,4.32-1.92
		c1.6-0.48,3.33-0.72,5.18-0.72c2.94,0,5.49,0.45,7.63,1.34c2.14,0.9,3.92,2.15,5.33,3.74c1.41,1.6,2.45,3.54,3.12,5.81
		c0.67,2.27,1.01,4.75,1.01,7.44V125h-7.49V98.02c0-3.78-0.83-6.75-2.5-8.93c-1.66-2.18-4.26-3.26-7.78-3.26
		c-2.43,0-4.53,0.42-6.29,1.25c-1.76,0.83-3.2,2.02-4.32,3.55c-1.12,1.54-1.95,3.36-2.5,5.47c-0.54,2.11-0.82,4.45-0.82,7.01V125
		h-7.49V90.73z"/>
</g>
<g>
	<path class="st1" d="M479.47,179.7h-4.9v-3.17h4.9v-5.04c0-1.38,0.13-2.63,0.38-3.77c0.26-1.14,0.7-2.12,1.32-2.95
		c0.62-0.83,1.45-1.48,2.47-1.94c1.02-0.46,2.29-0.7,3.79-0.7c0.48,0,0.99,0.05,1.54,0.14c0.54,0.1,0.99,0.24,1.34,0.43l-0.53,3.36
		c-0.9-0.32-1.75-0.48-2.54-0.48c-0.96,0-1.71,0.17-2.26,0.5c-0.54,0.34-0.95,0.8-1.22,1.39c-0.27,0.59-0.43,1.3-0.48,2.14
		c-0.05,0.83-0.07,1.73-0.07,2.69v4.22h5.47v3.17h-5.47V199h-3.74V179.7z"/>
	<path class="st1" d="M492.67,181.86c0-1.02-0.03-1.98-0.1-2.88c-0.06-0.9-0.1-1.71-0.1-2.45h3.55c0,0.61,0.02,1.22,0.05,1.82
		c0.03,0.61,0.05,1.23,0.05,1.87h0.1c0.26-0.54,0.62-1.07,1.08-1.58c0.46-0.51,1.02-0.97,1.66-1.37c0.64-0.4,1.36-0.72,2.16-0.96
		c0.8-0.24,1.66-0.36,2.59-0.36c0.26,0,0.51,0.02,0.77,0.05c0.26,0.03,0.51,0.1,0.77,0.19l-0.24,3.79
		c-0.64-0.19-1.31-0.29-2.02-0.29c-2.3,0-3.98,0.74-5.02,2.23c-1.04,1.49-1.56,3.53-1.56,6.12V199h-3.74V181.86z"/>
	<path class="st1" d="M507.41,187.77c0-1.76,0.3-3.36,0.91-4.8c0.61-1.44,1.44-2.68,2.5-3.72c1.06-1.04,2.32-1.85,3.79-2.42
		c1.47-0.58,3.07-0.86,4.8-0.86s3.33,0.29,4.8,0.86c1.47,0.58,2.74,1.38,3.79,2.42c1.05,1.04,1.89,2.28,2.5,3.72
		c0.61,1.44,0.91,3.04,0.91,4.8c0,1.76-0.3,3.36-0.91,4.8c-0.61,1.44-1.44,2.68-2.5,3.72c-1.06,1.04-2.32,1.85-3.79,2.42
		c-1.47,0.58-3.07,0.86-4.8,0.86s-3.33-0.29-4.8-0.86c-1.47-0.58-2.74-1.38-3.79-2.42c-1.06-1.04-1.89-2.28-2.5-3.72
		C507.71,191.13,507.41,189.53,507.41,187.77z M511.44,187.77c0,1.18,0.18,2.28,0.55,3.29c0.37,1.01,0.9,1.89,1.61,2.64
		c0.7,0.75,1.54,1.34,2.52,1.78c0.98,0.43,2.07,0.65,3.29,0.65s2.31-0.22,3.29-0.65c0.98-0.43,1.82-1.02,2.52-1.78
		c0.7-0.75,1.24-1.63,1.61-2.64c0.37-1.01,0.55-2.1,0.55-3.29c0-1.18-0.18-2.28-0.55-3.29s-0.9-1.89-1.61-2.64
		c-0.7-0.75-1.54-1.34-2.52-1.78c-0.98-0.43-2.07-0.65-3.29-0.65s-2.31,0.22-3.29,0.65s-1.82,1.02-2.52,1.78
		c-0.71,0.75-1.24,1.63-1.61,2.64S511.44,186.58,511.44,187.77z"/>
	<path class="st1" d="M537.21,181.86c0-1.02-0.03-1.98-0.1-2.88c-0.06-0.9-0.1-1.71-0.1-2.45h3.55c0,0.61,0.02,1.22,0.05,1.82
		c0.03,0.61,0.05,1.23,0.05,1.87h0.1c0.26-0.54,0.62-1.07,1.08-1.58c0.46-0.51,1.02-0.97,1.66-1.37c0.64-0.4,1.36-0.72,2.16-0.96
		c0.8-0.24,1.66-0.36,2.59-0.36c1.47,0,2.74,0.22,3.82,0.67c1.07,0.45,1.96,1.07,2.66,1.87c0.7,0.8,1.22,1.77,1.56,2.9
		c0.34,1.14,0.5,2.38,0.5,3.72V199h-3.74v-13.49c0-1.89-0.42-3.38-1.25-4.46c-0.83-1.09-2.13-1.63-3.89-1.63
		c-1.22,0-2.26,0.21-3.14,0.62c-0.88,0.42-1.6,1.01-2.16,1.78c-0.56,0.77-0.98,1.68-1.25,2.74c-0.27,1.06-0.41,2.22-0.41,3.5V199
		h-3.74V181.86z"/>
	<path class="st1" d="M576.19,179.7h-6.62v11.23c0,0.74,0.02,1.42,0.05,2.04c0.03,0.62,0.16,1.17,0.38,1.63
		c0.22,0.46,0.56,0.83,1.01,1.1c0.45,0.27,1.09,0.41,1.92,0.41c0.54,0,1.1-0.06,1.68-0.19s1.12-0.32,1.63-0.58l0.14,3.41
		c-0.64,0.29-1.35,0.5-2.14,0.62s-1.53,0.19-2.23,0.19c-1.34,0-2.42-0.18-3.22-0.53c-0.8-0.35-1.42-0.85-1.87-1.49
		c-0.45-0.64-0.74-1.43-0.89-2.38c-0.14-0.94-0.22-1.99-0.22-3.14V179.7h-4.9v-3.17h4.9v-6.38h3.74v6.38h6.62V179.7z"/>
	<path class="st1" d="M614.21,194.92c-1.34,1.73-2.82,2.94-4.42,3.62c-1.6,0.69-3.46,1.03-5.57,1.03c-1.76,0-3.34-0.31-4.75-0.94
		s-2.6-1.46-3.58-2.52c-0.98-1.06-1.73-2.3-2.26-3.74c-0.53-1.44-0.79-2.98-0.79-4.61c0-1.73,0.29-3.32,0.86-4.78
		c0.58-1.46,1.38-2.7,2.4-3.74c1.02-1.04,2.24-1.85,3.65-2.42c1.41-0.58,2.94-0.86,4.61-0.86c1.57,0,3.01,0.26,4.32,0.79
		c1.31,0.53,2.44,1.3,3.38,2.3c0.94,1.01,1.67,2.24,2.18,3.7c0.51,1.46,0.77,3.11,0.77,4.97v1.2h-18.14
		c0.06,0.96,0.29,1.88,0.7,2.76c0.4,0.88,0.92,1.65,1.56,2.3c0.64,0.66,1.39,1.18,2.26,1.56c0.86,0.38,1.81,0.58,2.83,0.58
		c1.63,0,3.01-0.29,4.13-0.86c1.12-0.58,2.13-1.42,3.02-2.54L614.21,194.92z M610.99,185.75c-0.06-1.92-0.69-3.46-1.87-4.61
		c-1.18-1.15-2.82-1.73-4.9-1.73s-3.76,0.58-5.04,1.73s-2.05,2.69-2.3,4.61H610.99z"/>
	<path class="st1" d="M620.83,181.86c0-1.02-0.03-1.98-0.1-2.88c-0.06-0.9-0.1-1.71-0.1-2.45h3.55c0,0.61,0.02,1.22,0.05,1.82
		c0.03,0.61,0.05,1.23,0.05,1.87h0.1c0.26-0.54,0.62-1.07,1.08-1.58c0.46-0.51,1.02-0.97,1.66-1.37c0.64-0.4,1.36-0.72,2.16-0.96
		c0.8-0.24,1.66-0.36,2.59-0.36c1.47,0,2.74,0.22,3.82,0.67c1.07,0.45,1.96,1.07,2.66,1.87c0.7,0.8,1.22,1.77,1.56,2.9
		c0.34,1.14,0.5,2.38,0.5,3.72V199h-3.74v-13.49c0-1.89-0.42-3.38-1.25-4.46c-0.83-1.09-2.13-1.63-3.89-1.63
		c-1.22,0-2.26,0.21-3.14,0.62c-0.88,0.42-1.6,1.01-2.16,1.78c-0.56,0.77-0.98,1.68-1.25,2.74c-0.27,1.06-0.41,2.22-0.41,3.5V199
		h-3.74V181.86z"/>
	<path class="st1" d="M666.19,195.02h-0.1c-0.7,1.28-1.82,2.36-3.34,3.24c-1.52,0.88-3.29,1.32-5.3,1.32c-1.57,0-3.04-0.3-4.42-0.89
		c-1.38-0.59-2.57-1.42-3.58-2.47c-1.01-1.06-1.8-2.3-2.38-3.74c-0.58-1.44-0.86-3.01-0.86-4.7c0-1.7,0.29-3.26,0.86-4.7
		c0.58-1.44,1.38-2.69,2.4-3.74c1.02-1.06,2.26-1.88,3.72-2.47c1.46-0.59,3.06-0.89,4.82-0.89c1.63,0,3.13,0.34,4.49,1.01
		c1.36,0.67,2.55,1.62,3.58,2.83h0.1v-17.09h3.74V199h-3.74V195.02z M666.19,187.77c0-1.18-0.19-2.28-0.55-3.29
		c-0.37-1.01-0.9-1.89-1.61-2.64c-0.71-0.75-1.54-1.34-2.52-1.78c-0.98-0.43-2.07-0.65-3.29-0.65c-1.22,0-2.31,0.22-3.29,0.65
		s-1.82,1.02-2.52,1.78c-0.7,0.75-1.24,1.63-1.61,2.64c-0.37,1.01-0.55,2.1-0.55,3.29c0,1.18,0.18,2.28,0.55,3.29
		c0.37,1.01,0.9,1.89,1.61,2.64c0.7,0.75,1.54,1.34,2.52,1.78c0.98,0.43,2.07,0.65,3.29,0.65c1.22,0,2.31-0.22,3.29-0.65
		c0.98-0.43,1.82-1.02,2.52-1.78c0.7-0.75,1.24-1.63,1.61-2.64C666.01,190.05,666.19,188.95,666.19,187.77z"/>
	<path class="st1" d="M708.86,195.02h-0.1c-0.7,1.28-1.82,2.36-3.34,3.24c-1.52,0.88-3.29,1.32-5.3,1.32c-1.57,0-3.04-0.3-4.42-0.89
		s-2.57-1.42-3.58-2.47c-1.01-1.06-1.8-2.3-2.38-3.74s-0.86-3.01-0.86-4.7c0-1.7,0.29-3.26,0.86-4.7s1.38-2.69,2.4-3.74
		c1.02-1.06,2.26-1.88,3.72-2.47c1.46-0.59,3.06-0.89,4.82-0.89c1.63,0,3.13,0.34,4.49,1.01c1.36,0.67,2.55,1.62,3.58,2.83h0.1
		v-17.09h3.74V199h-3.74V195.02z M708.86,187.77c0-1.18-0.18-2.28-0.55-3.29c-0.37-1.01-0.9-1.89-1.61-2.64
		c-0.7-0.75-1.54-1.34-2.52-1.78s-2.07-0.65-3.29-0.65c-1.22,0-2.31,0.22-3.29,0.65c-0.98,0.43-1.82,1.02-2.52,1.78
		c-0.7,0.75-1.24,1.63-1.61,2.64c-0.37,1.01-0.55,2.1-0.55,3.29c0,1.18,0.18,2.28,0.55,3.29c0.37,1.01,0.9,1.89,1.61,2.64
		c0.7,0.75,1.54,1.34,2.52,1.78c0.98,0.43,2.07,0.65,3.29,0.65c1.21,0,2.31-0.22,3.29-0.65c0.98-0.43,1.82-1.02,2.52-1.78
		c0.7-0.75,1.24-1.63,1.61-2.64C708.68,190.05,708.86,188.95,708.86,187.77z"/>
	<path class="st1" d="M739.58,194.92c-1.34,1.73-2.82,2.94-4.42,3.62c-1.6,0.69-3.46,1.03-5.57,1.03c-1.76,0-3.34-0.31-4.75-0.94
		s-2.6-1.46-3.58-2.52c-0.98-1.06-1.73-2.3-2.26-3.74c-0.53-1.44-0.79-2.98-0.79-4.61c0-1.73,0.29-3.32,0.86-4.78
		c0.58-1.46,1.38-2.7,2.4-3.74c1.02-1.04,2.24-1.85,3.65-2.42c1.41-0.58,2.94-0.86,4.61-0.86c1.57,0,3.01,0.26,4.32,0.79
		c1.31,0.53,2.44,1.3,3.38,2.3c0.94,1.01,1.67,2.24,2.18,3.7c0.51,1.46,0.77,3.11,0.77,4.97v1.2h-18.14
		c0.06,0.96,0.29,1.88,0.7,2.76c0.4,0.88,0.92,1.65,1.56,2.3c0.64,0.66,1.39,1.18,2.26,1.56c0.86,0.38,1.81,0.58,2.83,0.58
		c1.63,0,3.01-0.29,4.13-0.86c1.12-0.58,2.13-1.42,3.02-2.54L739.58,194.92z M736.37,185.75c-0.06-1.92-0.69-3.46-1.87-4.61
		c-1.18-1.15-2.82-1.73-4.9-1.73s-3.76,0.58-5.04,1.73s-2.05,2.69-2.3,4.61H736.37z"/>
	<path class="st1" d="M756.43,199h-4.13l-9.17-22.46h4.37l7.01,17.62h0.1l6.67-17.62h4.03L756.43,199z"/>
	<path class="st1" d="M789.41,194.92c-1.34,1.73-2.82,2.94-4.42,3.62c-1.6,0.69-3.46,1.03-5.57,1.03c-1.76,0-3.34-0.31-4.75-0.94
		c-1.41-0.62-2.6-1.46-3.58-2.52c-0.98-1.06-1.73-2.3-2.26-3.74c-0.53-1.44-0.79-2.98-0.79-4.61c0-1.73,0.29-3.32,0.87-4.78
		c0.58-1.46,1.38-2.7,2.4-3.74c1.02-1.04,2.24-1.85,3.65-2.42c1.41-0.58,2.94-0.86,4.61-0.86c1.57,0,3.01,0.26,4.32,0.79
		c1.31,0.53,2.44,1.3,3.38,2.3c0.94,1.01,1.67,2.24,2.18,3.7c0.51,1.46,0.77,3.11,0.77,4.97v1.2h-18.14
		c0.06,0.96,0.29,1.88,0.7,2.76c0.4,0.88,0.92,1.65,1.56,2.3c0.64,0.66,1.39,1.18,2.26,1.56c0.86,0.38,1.81,0.58,2.83,0.58
		c1.63,0,3.01-0.29,4.13-0.86c1.12-0.58,2.13-1.42,3.03-2.54L789.41,194.92z M786.19,185.75c-0.06-1.92-0.69-3.46-1.87-4.61
		c-1.18-1.15-2.82-1.73-4.9-1.73c-2.08,0-3.76,0.58-5.04,1.73c-1.28,1.15-2.05,2.69-2.3,4.61H786.19z"/>
	<path class="st1" d="M796.37,162.71h3.74V199h-3.74V162.71z"/>
	<path class="st1" d="M806.25,187.77c0-1.76,0.3-3.36,0.91-4.8c0.61-1.44,1.44-2.68,2.5-3.72c1.06-1.04,2.32-1.85,3.79-2.42
		c1.47-0.58,3.07-0.86,4.8-0.86s3.33,0.29,4.8,0.86c1.47,0.58,2.74,1.38,3.79,2.42c1.05,1.04,1.89,2.28,2.5,3.72
		c0.61,1.44,0.91,3.04,0.91,4.8c0,1.76-0.3,3.36-0.91,4.8c-0.61,1.44-1.44,2.68-2.5,3.72c-1.06,1.04-2.32,1.85-3.79,2.42
		c-1.47,0.58-3.07,0.86-4.8,0.86s-3.33-0.29-4.8-0.86c-1.47-0.58-2.74-1.38-3.79-2.42c-1.06-1.04-1.89-2.28-2.5-3.72
		C806.56,191.13,806.25,189.53,806.25,187.77z M810.29,187.77c0,1.18,0.18,2.28,0.55,3.29c0.37,1.01,0.9,1.89,1.61,2.64
		c0.7,0.75,1.54,1.34,2.52,1.78c0.98,0.43,2.07,0.65,3.29,0.65s2.31-0.22,3.29-0.65c0.98-0.43,1.82-1.02,2.52-1.78
		c0.7-0.75,1.24-1.63,1.61-2.64c0.37-1.01,0.55-2.1,0.55-3.29c0-1.18-0.18-2.28-0.55-3.29s-0.9-1.89-1.61-2.64
		c-0.7-0.75-1.54-1.34-2.52-1.78c-0.98-0.43-2.07-0.65-3.29-0.65s-2.31,0.22-3.29,0.65s-1.82,1.02-2.52,1.78
		c-0.71,0.75-1.24,1.63-1.61,2.64S810.29,186.58,810.29,187.77z"/>
	<path class="st1" d="M835.87,176.54h3.74v3.26h0.1c1.02-1.22,2.21-2.16,3.58-2.83c1.36-0.67,2.86-1.01,4.49-1.01
		c1.76,0,3.37,0.3,4.82,0.89c1.46,0.59,2.7,1.42,3.72,2.47c1.02,1.06,1.82,2.3,2.4,3.74s0.86,3.01,0.86,4.7
		c0,1.7-0.29,3.26-0.86,4.7s-1.37,2.69-2.38,3.74c-1.01,1.06-2.2,1.88-3.58,2.47s-2.85,0.89-4.42,0.89c-2.02,0-3.78-0.44-5.3-1.32
		c-1.52-0.88-2.63-1.96-3.34-3.24h-0.1v14.93h-3.74V176.54z M839.61,187.77c0,1.18,0.18,2.28,0.55,3.29
		c0.37,1.01,0.9,1.89,1.61,2.64c0.7,0.75,1.54,1.34,2.52,1.78c0.98,0.43,2.07,0.65,3.29,0.65c1.22,0,2.31-0.22,3.29-0.65
		c0.98-0.43,1.82-1.02,2.52-1.78c0.7-0.75,1.24-1.63,1.61-2.64c0.37-1.01,0.55-2.1,0.55-3.29c0-1.18-0.18-2.28-0.55-3.29
		c-0.37-1.01-0.9-1.89-1.61-2.64c-0.7-0.75-1.54-1.34-2.52-1.78c-0.98-0.43-2.07-0.65-3.29-0.65c-1.22,0-2.31,0.22-3.29,0.65
		c-0.98,0.43-1.82,1.02-2.52,1.78c-0.71,0.75-1.24,1.63-1.61,2.64C839.8,185.49,839.61,186.58,839.61,187.77z"/>
	<path class="st1" d="M885.45,194.92c-1.34,1.73-2.82,2.94-4.42,3.62c-1.6,0.69-3.46,1.03-5.57,1.03c-1.76,0-3.34-0.31-4.75-0.94
		c-1.41-0.62-2.6-1.46-3.58-2.52c-0.98-1.06-1.73-2.3-2.26-3.74c-0.53-1.44-0.79-2.98-0.79-4.61c0-1.73,0.29-3.32,0.87-4.78
		c0.58-1.46,1.38-2.7,2.4-3.74c1.02-1.04,2.24-1.85,3.65-2.42c1.41-0.58,2.94-0.86,4.61-0.86c1.57,0,3.01,0.26,4.32,0.79
		c1.31,0.53,2.44,1.3,3.38,2.3c0.94,1.01,1.67,2.24,2.18,3.7c0.51,1.46,0.77,3.11,0.77,4.97v1.2h-18.14
		c0.06,0.96,0.29,1.88,0.7,2.76c0.4,0.88,0.92,1.65,1.56,2.3c0.64,0.66,1.39,1.18,2.26,1.56c0.86,0.38,1.81,0.58,2.83,0.58
		c1.63,0,3.01-0.29,4.13-0.86c1.12-0.58,2.13-1.42,3.03-2.54L885.45,194.92z M882.24,185.75c-0.06-1.92-0.69-3.46-1.87-4.61
		c-1.18-1.15-2.82-1.73-4.9-1.73c-2.08,0-3.76,0.58-5.04,1.73c-1.28,1.15-2.05,2.69-2.3,4.61H882.24z"/>
	<path class="st1" d="M892.08,181.86c0-1.02-0.03-1.98-0.1-2.88c-0.06-0.9-0.1-1.71-0.1-2.45h3.55c0,0.61,0.02,1.22,0.05,1.82
		c0.03,0.61,0.05,1.23,0.05,1.87h0.1c0.26-0.54,0.62-1.07,1.08-1.58c0.46-0.51,1.02-0.97,1.66-1.37c0.64-0.4,1.36-0.72,2.16-0.96
		c0.8-0.24,1.66-0.36,2.59-0.36c0.26,0,0.51,0.02,0.77,0.05c0.26,0.03,0.51,0.1,0.77,0.19l-0.24,3.79
		c-0.64-0.19-1.31-0.29-2.02-0.29c-2.3,0-3.98,0.74-5.02,2.23c-1.04,1.49-1.56,3.53-1.56,6.12V199h-3.74V181.86z"/>
</g>
<path class="st4" d="M-97.99,156.37c0-16.09-12.92-29.13-29.01-29.13c-1.42,0-2.74,0.11-4.11,0.3c0.01-0.51,0.07-1.02,0.07-1.54
	c0-32.86-26.62-59.5-59.48-59.5c-24.11,0-44.85,14.35-54.2,34.97c-7.2-4.72-15.79-7.47-25.04-7.47c-25.27,0-45.75,20.48-45.75,45.75
	s19.23,46.75,45.72,46.25c8.76-0.17,147.78,0,147.78,0S-97.99,185.67-97.99,156.37z"/>
<path class="st5" d="M192.16,87.97c0-13.27-10.66-24.03-23.93-24.03c-1.17,0-2.26,0.09-3.39,0.25c0.01-0.42,0.06-0.84,0.06-1.27
	c0-27.11-21.96-49.09-49.07-49.09c-19.89,0-37,11.84-44.71,28.85c-5.94-3.89-13.03-6.16-20.66-6.16c-20.84,0-37.74,16.9-37.74,37.74
	s15.87,38.57,37.72,38.16c7.23-0.14,121.92,0,121.92,0S192.16,112.14,192.16,87.97z"/>
<path class="st5" d="M276,134.24c0-6.4-5.14-11.58-11.54-11.58c-0.56,0-1.09,0.04-1.63,0.12c0.01-0.2,0.03-0.41,0.03-0.61
	c0-13.07-10.59-23.66-23.66-23.66c-9.59,0-17.84,5.71-21.55,13.91c-2.86-1.88-6.28-2.97-9.96-2.97c-10.05,0-18.19,8.15-18.19,18.19
	s7.65,18.59,18.18,18.39c3.49-0.07,58.77,0,58.77,0S276,145.89,276,134.24z"/>
<path class="st5" d="M288.5,82.72c0-8.31,6.67-15.04,14.98-15.04c0.73,0,1.42,0.05,2.12,0.16c-0.01-0.27-0.04-0.53-0.04-0.8
	c0-16.97,13.75-30.72,30.71-30.72c12.45,0,23.16,7.41,27.98,18.06c3.72-2.44,8.15-3.86,12.93-3.86c13.05,0,23.62,10.58,23.62,23.62
	s-9.93,24.14-23.61,23.88c-4.52-0.09-76.3,0-76.3,0S288.5,97.85,288.5,82.72z"/>
<rect x="114.08" y="216.1" class="st3" width="24.64" height="68.6"/>
<path class="st6" d="M607.47,467c-51.59-53.6-137.15-90.01-234-90.01c-5.46,0-10.88,0.18-16.26,0.41
	c-47.41-67.85-143.23-114.33-253.73-114.33c-154.54,0-280.38,91.72-285.19,203.94H607.47z"/>
</svg>
