<?xml version="1.0" encoding="utf-8"?>
<!-- Generator: Adobe Illustrator 19.1.0, SVG Export Plug-In . SVG Version: 6.00 Build 0)  -->
<svg version="1.1" id="Layer_1" xmlns="http://www.w3.org/2000/svg" xmlns:xlink="http://www.w3.org/1999/xlink" x="0px" y="0px"
	 viewBox="0 0 960 560" style="enable-background:new 0 0 960 560;" xml:space="preserve">
<style type="text/css">
	.st0{fill:#29ABE2;}
	.st1{fill:#0071BC;}
	.st2{fill:#009245;}
	.st3{fill:#C1DEE5;}
	.st4{fill:#F2F2F2;}
	.st5{fill:#B8EDFF;}
	.st6{fill:#7AC943;}
	.st7{fill:#FFFFFF;}
</style>
<rect x="-3.83" y="-5.46" class="st0" width="963.83" height="346.46"/>
<rect x="-15.09" y="290.16" class="st1" width="978.15" height="273.25"/>
<path class="st2" d="M505.25,322c-46.15-42.02-122.69-70.56-209.32-70.56c-4.88,0-9.73,0.14-14.54,0.32
	c-42.41-53.19-128.13-89.62-226.97-89.62c-138.25,0-250.81,71.89-255.12,159.86H505.25z"/>
<polygon class="st3" points="253,234 253,220 245,220 245,200 217,200 217,220 210,220 210,234 203,234 203,322 259,322 259,234 "/>
<rect x="147.67" y="200.09" class="st3" width="43.79" height="121.91"/>
<rect x="81.71" y="194.08" class="st3" width="24.64" height="127.92"/>
<rect x="39.35" y="237.09" class="st3" width="33.67" height="84.91"/>
<path class="st4" d="M-97.99,156.37c0-16.09-12.92-29.13-29.01-29.13c-1.42,0-2.74,0.11-4.11,0.3c0.01-0.51,0.07-1.02,0.07-1.54
	c0-32.86-26.62-59.5-59.48-59.5c-24.11,0-44.85,14.35-54.2,34.97c-7.2-4.72-15.79-7.47-25.04-7.47c-25.27,0-45.75,20.48-45.75,45.75
	s19.23,46.75,45.72,46.25c8.76-0.17,147.78,0,147.78,0S-97.99,185.67-97.99,156.37z"/>
<path class="st5" d="M192.16,87.97c0-13.27-10.66-24.03-23.93-24.03c-1.17,0-2.26,0.09-3.39,0.25c0.01-0.42,0.06-0.84,0.06-1.27
	c0-27.11-21.96-49.09-49.07-49.09c-19.89,0-37,11.84-44.71,28.85c-5.94-3.89-13.03-6.16-20.66-6.16c-20.84,0-37.74,16.9-37.74,37.74
	s15.87,38.57,37.72,38.16c7.23-0.14,121.92,0,121.92,0S192.16,112.14,192.16,87.97z"/>
<path class="st5" d="M276,134.24c0-6.4-5.14-11.58-11.54-11.58c-0.56,0-1.09,0.04-1.63,0.12c0.01-0.2,0.03-0.41,0.03-0.61
	c0-13.07-10.59-23.66-23.66-23.66c-9.59,0-17.84,5.71-21.55,13.91c-2.86-1.88-6.28-2.97-9.96-2.97c-10.05,0-18.19,8.15-18.19,18.19
	s7.65,18.59,18.18,18.39c3.49-0.07,58.77,0,58.77,0S276,145.89,276,134.24z"/>
<path class="st5" d="M288.5,82.72c0-8.31,6.67-15.04,14.98-15.04c0.73,0,1.42,0.05,2.12,0.16c-0.01-0.27-0.04-0.53-0.04-0.8
	c0-16.97,13.75-30.72,30.71-30.72c12.45,0,23.16,7.41,27.98,18.06c3.72-2.44,8.15-3.86,12.93-3.86c13.05,0,23.62,10.58,23.62,23.62
	s-9.93,24.14-23.61,23.88c-4.52-0.09-76.3,0-76.3,0S288.5,97.85,288.5,82.72z"/>
<rect x="114.08" y="216.1" class="st3" width="24.64" height="105.9"/>
<path class="st6" d="M607.47,467c-51.59-55.98-137.15-94.01-234-94.01c-5.46,0-10.88,0.19-16.26,0.42
	C309.81,302.55,213.99,254,103.48,254c-154.54,0-280.38,95.79-285.19,213H607.47z"/>
<g>
	<path class="st7" d="M426.12,95.99h4.84v58.3h0.22l26.07-32.01h5.61l-17.16,20.9l20.02,31.9h-5.39l-17.49-28.27l-11.88,13.86v14.41
		h-4.84V95.99z"/>
	<path class="st7" d="M475.07,194.66c6.49,0,10.89-5.94,13.53-13.97l1.43-4.62l-21.67-53.79h5.28l12.76,33.22
		c1.65,4.4,3.74,10.12,5.72,14.74h0.44c1.65-4.62,3.41-10.34,4.84-14.74l11.33-33.22h4.95l-20.9,59.4
		c-2.97,8.8-8.25,17.49-17.71,17.49c-1.98,0-3.96-0.44-5.39-1.1l1.1-4.29C471.88,194.22,473.53,194.66,475.07,194.66z"/>
	<path class="st7" d="M544.37,120.96c12.76,0,23.76,10.12,23.76,27.83c0,17.49-11,27.61-23.76,27.61
		c-12.65,0-23.65-10.12-23.65-27.61C520.72,131.08,531.72,120.96,544.37,120.96z M544.37,172.11c10.67,0,18.7-9.46,18.7-23.32
		c0-13.97-8.03-23.54-18.7-23.54s-18.59,9.57-18.59,23.54C525.78,162.65,533.7,172.11,544.37,172.11z"/>
	<path class="st7" d="M602.12,165.51c4.51,3.74,9.24,6.71,16.83,6.71c8.25,0,12.54-4.84,12.54-10.45c0-6.6-6.82-9.46-12.87-11.66
		c-8.03-2.86-16.83-6.05-16.83-15.07c0-7.7,6.05-14.08,17.05-14.08c5.61,0,11.22,2.31,15.07,5.5l-2.64,3.41
		c-3.52-2.64-7.26-4.73-12.65-4.73c-8.14,0-11.88,4.73-11.88,9.57c0,5.83,6.16,8.36,12.43,10.67c8.25,3.08,17.27,5.83,17.27,16.17
		c0,7.92-6.38,14.85-17.82,14.85c-7.81,0-14.63-3.3-19.36-7.26L602.12,165.51z"/>
	<path class="st7" d="M649.63,122.28h4.84v33.22c0,11.22,3.52,16.5,11.99,16.5c6.27,0,10.89-3.3,17.05-10.78v-38.94h4.84v52.8h-4.07
		l-0.55-8.8h-0.22c-5.17,6.05-10.67,10.12-17.93,10.12c-10.89,0-15.95-6.6-15.95-20.24V122.28z"/>
	<path class="st7" d="M739.72,141.97c0.22-8.03-2.09-16.72-12.43-16.72c-7.15,0-13.31,3.52-16.83,6.16l-2.2-3.63
		c3.74-2.64,11-6.82,19.58-6.82c12.54,0,16.72,9.02,16.72,20.35v33.77h-4.07l-0.55-6.82h-0.22c-5.39,4.29-11.77,8.14-18.7,8.14
		c-8.36,0-15.4-4.51-15.4-14.52C705.62,150.22,716.29,144.61,739.72,141.97z M721.79,172.22c6.05,0,11.44-2.97,17.93-8.58v-17.93
		c-21.67,2.53-29.04,7.59-29.04,15.95C710.68,169.25,715.75,172.22,721.79,172.22z"/>
	<path class="st7" d="M761.39,194.66c6.49,0,10.89-5.94,13.53-13.97l1.43-4.62l-21.67-53.79h5.28l12.76,33.22
		c1.65,4.4,3.74,10.12,5.72,14.74h0.44c1.65-4.62,3.41-10.34,4.84-14.74l11.33-33.22H800l-20.9,59.4
		c-2.97,8.8-8.25,17.49-17.71,17.49c-1.98,0-3.96-0.44-5.39-1.1l1.1-4.29C758.2,194.22,759.85,194.66,761.39,194.66z"/>
	<path class="st7" d="M840.37,141.97c0.22-8.03-2.09-16.72-12.43-16.72c-7.15,0-13.31,3.52-16.83,6.16l-2.2-3.63
		c3.74-2.64,11-6.82,19.58-6.82c12.54,0,16.72,9.02,16.72,20.35v33.77h-4.07l-0.55-6.82h-0.22c-5.39,4.29-11.77,8.14-18.7,8.14
		c-8.36,0-15.4-4.51-15.4-14.52C806.27,150.22,816.94,144.61,840.37,141.97z M822.44,172.22c6.05,0,11.44-2.97,17.93-8.58v-17.93
		c-21.67,2.53-29.04,7.59-29.04,15.95C811.33,169.25,816.39,172.22,822.44,172.22z"/>
	<path class="st7" d="M864.13,122.28h4.18l0.44,8.14h0.33c5.39-5.39,10.89-9.46,18.15-9.46c10.89,0,15.95,6.6,15.95,20.24v33.88
		h-4.84v-33.22c0-11.22-3.52-16.5-12.1-16.5c-6.27,0-10.78,3.3-17.27,9.9v39.82h-4.84V122.28z"/>
</g>
<g>
	<path class="st1" d="M559.03,237.89c1.97,1.63,4.03,2.93,7.34,2.93c3.6,0,5.47-2.11,5.47-4.56c0-2.88-2.98-4.13-5.62-5.09
		c-3.5-1.25-7.34-2.64-7.34-6.58c0-3.36,2.64-6.14,7.44-6.14c2.45,0,4.9,1.01,6.58,2.4l-1.15,1.49c-1.54-1.15-3.17-2.06-5.52-2.06
		c-3.55,0-5.18,2.06-5.18,4.18c0,2.54,2.69,3.65,5.42,4.66c3.6,1.34,7.54,2.54,7.54,7.06c0,3.46-2.78,6.48-7.78,6.48
		c-3.41,0-6.38-1.44-8.45-3.17L559.03,237.89z"/>
	<path class="st1" d="M588.5,218.45c5.57,0,10.37,4.42,10.37,12.14c0,7.63-4.8,12.05-10.37,12.05c-5.52,0-10.32-4.42-10.32-12.05
		C578.18,222.87,582.98,218.45,588.5,218.45z M588.5,240.77c4.66,0,8.16-4.13,8.16-10.18c0-6.1-3.5-10.27-8.16-10.27
		s-8.11,4.18-8.11,10.27C580.39,236.64,583.85,240.77,588.5,240.77z"/>
	<path class="st1" d="M626.71,241.78c-1.34,0.48-2.83,0.86-3.79,0.86c-4.42,0-5.71-2.83-5.71-6.96v-14.83h-8.98v21.22h-2.11v-21.22
		h-3.17v-1.63l3.17-0.19v-5.14c0-4.56,2.06-6.91,5.71-6.91c1.06,0,2.3,0.29,3.36,0.77l-0.58,1.73c-0.96-0.48-1.92-0.67-2.78-0.67
		c-2.45,0-3.6,1.92-3.6,5.23v4.99h9.03l0.29-6.67h1.78v6.67h6.72v1.82h-6.72v15.03c0,2.93,0.77,4.9,3.94,4.9
		c0.86,0,2.06-0.34,2.88-0.72L626.71,241.78z"/>
	<path class="st1" d="M628.39,219.03h2.3l4.13,14.93c0.58,2.11,1.1,4.08,1.58,6.14h0.19c0.53-2.06,1.1-4.03,1.68-6.14l4.18-14.93
		H645l4.18,14.93c0.58,2.11,1.15,4.08,1.73,6.14h0.19c0.53-2.06,1.1-4.03,1.63-6.14l4.08-14.93h2.16l-6.62,23.04h-2.78l-4.03-14.31
		c-0.67-2.21-1.1-4.32-1.78-6.58h-0.19c-0.53,2.26-1.1,4.46-1.82,6.67l-3.98,14.21h-2.54L628.39,219.03z"/>
	<path class="st1" d="M677.64,227.62c0.1-3.5-0.91-7.3-5.42-7.3c-3.12,0-5.81,1.54-7.34,2.69l-0.96-1.58
		c1.63-1.15,4.8-2.98,8.54-2.98c5.47,0,7.3,3.94,7.3,8.88v14.74h-1.78l-0.24-2.98h-0.1c-2.35,1.87-5.14,3.55-8.16,3.55
		c-3.65,0-6.72-1.97-6.72-6.34C662.76,231.22,667.41,228.77,677.64,227.62z M669.81,240.82c2.64,0,4.99-1.3,7.83-3.74v-7.83
		c-9.46,1.1-12.67,3.31-12.67,6.96C664.97,239.52,667.17,240.82,669.81,240.82z"/>
	<path class="st1" d="M688.01,219.03h1.82l0.19,4.27h0.14c1.54-2.83,3.79-4.85,6.53-4.85c0.86,0,1.54,0.1,2.3,0.48l-0.48,1.92
		c-0.77-0.29-1.2-0.38-2.11-0.38c-2.06,0-4.51,1.58-6.29,5.91v15.7h-2.11V219.03z"/>
	<path class="st1" d="M710.85,218.45c5.47,0,8.83,3.89,8.83,10.66c0,0.58,0,1.15-0.1,1.73h-16.61c0.1,5.81,3.5,9.99,8.69,9.99
		c2.5,0,4.46-0.82,6.19-2.06l0.86,1.63c-1.82,1.1-3.89,2.26-7.25,2.26c-5.9,0-10.66-4.51-10.66-12.05
		C700.82,223.06,705.72,218.45,710.85,218.45z M717.67,229.2c0-5.9-2.64-8.93-6.77-8.93c-3.94,0-7.44,3.41-7.92,8.93H717.67z"/>
	<path class="st1" d="M743.59,218.45c5.47,0,8.83,3.89,8.83,10.66c0,0.58,0,1.15-0.1,1.73h-16.61c0.1,5.81,3.5,9.99,8.69,9.99
		c2.5,0,4.46-0.82,6.19-2.06l0.86,1.63c-1.82,1.1-3.89,2.26-7.25,2.26c-5.9,0-10.66-4.51-10.66-12.05
		C733.56,223.06,738.45,218.45,743.59,218.45z M750.41,229.2c0-5.9-2.64-8.93-6.77-8.93c-3.94,0-7.44,3.41-7.92,8.93H750.41z"/>
	<path class="st1" d="M758.66,219.03h1.82l0.19,3.55h0.14c2.35-2.35,4.75-4.13,7.92-4.13c4.75,0,6.96,2.88,6.96,8.83v14.79h-2.11
		v-14.5c0-4.9-1.54-7.2-5.28-7.2c-2.74,0-4.71,1.44-7.54,4.32v17.38h-2.11V219.03z"/>
	<path class="st1" d="M785.68,241.2v-0.19c-1.15-0.67-2.02-1.92-2.02-3.7c0-2.06,1.49-3.5,2.5-4.22v-0.19
		c-1.44-1.25-2.88-3.55-2.88-6.34c0-4.75,3.6-8.11,8.11-8.11c1.25,0,2.3,0.29,3.02,0.58h7.82v1.78h-5.38
		c1.49,1.3,2.54,3.36,2.54,5.81c0,4.71-3.5,8.11-8.02,8.11c-1.3,0-2.78-0.34-3.84-0.96c-1.01,0.82-1.87,1.78-1.87,3.31
		c0,1.68,0.96,3.02,4.42,3.02h4.94c5.18,0,7.58,1.63,7.58,5.28c0,3.98-4.27,7.78-10.9,7.78c-5.81,0-9.46-2.5-9.46-6.38
		C782.28,244.76,783.57,242.74,785.68,241.2z M791.97,251.43c5.18,0,8.5-2.93,8.5-5.81c0-2.54-1.87-3.5-5.33-3.5h-4.94
		c-0.48,0-1.68-0.1-2.88-0.38c-2.11,1.44-3.02,3.22-3.02,4.85C784.29,249.46,787.08,251.43,791.97,251.43z M797.35,226.56
		c0-3.89-2.69-6.38-5.95-6.38c-3.26,0-6,2.45-6,6.38c0,3.89,2.78,6.48,6,6.48C794.56,233.04,797.35,230.45,797.35,226.56z"/>
	<path class="st1" d="M806.76,211.59c0-1.2,0.86-1.92,1.92-1.92s1.92,0.72,1.92,1.92c0,1.1-0.86,1.87-1.92,1.87
		S806.76,212.69,806.76,211.59z M807.57,219.03h2.11v23.04h-2.11V219.03z"/>
	<path class="st1" d="M818.56,219.03h1.82l0.19,3.55h0.14c2.35-2.35,4.75-4.13,7.92-4.13c4.75,0,6.96,2.88,6.96,8.83v14.79h-2.11
		v-14.5c0-4.9-1.54-7.2-5.28-7.2c-2.74,0-4.71,1.44-7.54,4.32v17.38h-2.11V219.03z"/>
	<path class="st1" d="M852.21,218.45c5.47,0,8.83,3.89,8.83,10.66c0,0.58,0,1.15-0.1,1.73h-16.61c0.1,5.81,3.5,9.99,8.69,9.99
		c2.5,0,4.46-0.82,6.19-2.06l0.86,1.63c-1.82,1.1-3.89,2.26-7.25,2.26c-5.9,0-10.66-4.51-10.66-12.05
		C842.18,223.06,847.08,218.45,852.21,218.45z M859.03,229.2c0-5.9-2.64-8.93-6.77-8.93c-3.94,0-7.44,3.41-7.92,8.93H859.03z"/>
	<path class="st1" d="M875.4,218.45c5.47,0,8.83,3.89,8.83,10.66c0,0.58,0,1.15-0.1,1.73h-16.61c0.1,5.81,3.5,9.99,8.69,9.99
		c2.5,0,4.46-0.82,6.19-2.06l0.86,1.63c-1.82,1.1-3.89,2.26-7.25,2.26c-5.9,0-10.66-4.51-10.66-12.05
		C865.36,223.06,870.26,218.45,875.4,218.45z M882.21,229.2c0-5.9-2.64-8.93-6.77-8.93c-3.94,0-7.44,3.41-7.92,8.93H882.21z"/>
	<path class="st1" d="M890.47,219.03h1.82l0.19,4.27h0.14c1.54-2.83,3.79-4.85,6.53-4.85c0.86,0,1.54,0.1,2.3,0.48l-0.48,1.92
		c-0.77-0.29-1.2-0.38-2.11-0.38c-2.06,0-4.51,1.58-6.29,5.91v15.7h-2.11V219.03z"/>
</g>
<g>
</g>
<g>
</g>
<g>
</g>
<g>
</g>
<g>
</g>
<g>
</g>
<g>
</g>
<g>
</g>
<g>
</g>
<g>
</g>
<g>
</g>
<g>
</g>
<g>
</g>
<g>
</g>
<g>
</g>
</svg>
